<svg width="123" height="24" viewBox="0 0 123 24" fill="none" xmlns="http://www.w3.org/2000/svg">
<g clip-path="url(#clip0_175_3957)">
<path fill-rule="evenodd" clip-rule="evenodd" d="M16.2114 7.01118C15.2247 6.3519 14.0646 6 12.8779 6V0C15.2513 0 17.5714 0.703788 19.5448 2.02237C21.5182 3.34094 23.0562 5.21509 23.9645 7.40778C24.8727 9.60048 25.1104 12.0133 24.6474 14.3411C24.1843 16.6688 23.0415 18.8071 21.3632 20.4853C19.685 22.1635 17.5468 23.3064 15.219 23.7694C12.8913 24.2324 10.4784 23.9948 8.28571 23.0866C6.09301 22.1783 4.21887 20.6402 2.9003 18.6668C1.58172 16.6934 0.87793 14.3734 0.87793 12H6.87793C6.87793 13.1867 7.22983 14.3467 7.88911 15.3334C8.54839 16.3201 9.48547 17.0891 10.5819 17.5433C11.6782 17.9974 12.8846 18.1162 14.0485 17.8847C15.2123 17.6532 16.2814 17.0818 17.1206 16.2427C17.9597 15.4035 18.5311 14.3344 18.7626 13.1705C18.9942 12.0067 18.8754 10.8002 18.4212 9.70392C17.9671 8.60754 17.1981 7.67046 16.2114 7.01118Z" fill="#007DFC"/>
<path fill-rule="evenodd" clip-rule="evenodd" d="M6.87793 3.17096e-06C6.87793 0.787934 6.72274 1.56815 6.42121 2.29611C6.11968 3.02406 5.67772 3.68549 5.12057 4.24264C4.56342 4.7998 3.90199 5.24175 3.17403 5.54328C2.44607 5.84481 1.66586 6 0.87793 6L0.87793 12C2.45379 12 4.01422 11.6896 5.47013 11.0866C6.92605 10.4835 8.24893 9.59958 9.36319 8.48526C10.4775 7.371 11.3614 6.04812 11.9645 4.5922C12.5675 3.13629 12.8779 1.57586 12.8779 0L6.87793 3.17096e-06Z" fill="#007DFC"/>
<path d="M76.2493 8.67151H73.3381V17.9189H76.2493V8.67151Z" fill="#007DFC"/>
<path d="M73.6621 6.93991C73.9663 7.24435 74.3467 7.39657 74.8033 7.39657C75.2599 7.39657 75.6343 7.24435 75.9259 6.93991C76.2181 6.62281 76.3639 6.24223 76.3639 5.79826C76.3639 5.34161 76.2181 4.96105 75.9259 4.65662C75.6343 4.35217 75.2599 4.19995 74.8033 4.19995C74.3467 4.19995 73.9663 4.35217 73.6621 4.65662C73.3699 4.96105 73.2241 5.34161 73.2241 5.79826C73.2241 6.24223 73.3699 6.62281 73.6621 6.93991Z" fill="#007DFC"/>
<path d="M31.5715 17.9188V4.48535H34.5589V15.293H40.5145V17.9188H31.5715Z" fill="#007DFC"/>
<path fill-rule="evenodd" clip-rule="evenodd" d="M45.8943 18.1282C44.9429 18.1282 44.0804 17.9189 43.3066 17.5003C42.5455 17.069 41.9429 16.4855 41.4989 15.7497C41.055 15.014 40.833 14.1895 40.833 13.2761C40.833 12.3628 41.055 11.5447 41.4989 10.8216C41.9429 10.0985 42.5455 9.5277 43.3066 9.10914C44.0677 8.6778 44.9303 8.46216 45.8943 8.46216C46.8584 8.46216 47.7209 8.6715 48.482 9.09006C49.2431 9.50868 49.8457 10.0859 50.2897 10.8216C50.7337 11.5447 50.9557 12.3628 50.9557 13.2761C50.9557 14.1895 50.7337 15.014 50.2897 15.7497C49.8457 16.4855 49.2431 17.069 48.482 17.5003C47.7209 17.9189 46.8584 18.1282 45.8943 18.1282ZM45.8943 15.4834C46.3129 15.4834 46.6808 15.3946 46.9979 15.217C47.315 15.0267 47.5561 14.7667 47.7209 14.4368C47.8985 14.0944 47.9873 13.7074 47.9873 13.2761C47.9873 12.8449 47.8985 12.4706 47.7209 12.1535C47.5433 11.8237 47.296 11.57 46.9789 11.3924C46.6744 11.2021 46.3129 11.107 45.8943 11.107C45.4884 11.107 45.1269 11.2021 44.8097 11.3924C44.4926 11.57 44.2453 11.8237 44.0677 12.1535C43.8901 12.4834 43.8013 12.8639 43.8013 13.2952C43.8013 13.7138 43.8901 14.0944 44.0677 14.4368C44.2453 14.7667 44.4926 15.0267 44.8097 15.217C45.1269 15.3946 45.4884 15.4834 45.8943 15.4834Z" fill="#007DFC"/>
<path fill-rule="evenodd" clip-rule="evenodd" d="M53.2614 21.5341C54.0352 21.8893 54.9295 22.0669 55.9443 22.0669C56.9337 22.0669 57.8154 21.8703 58.5891 21.477C59.363 21.0838 59.9718 20.5384 60.4158 19.8407C60.8597 19.143 61.082 18.3185 61.082 17.3671V8.67152H58.2276V9.29282C58.0153 9.11414 57.7742 8.96414 57.5046 8.84276C57.0098 8.60174 56.4453 8.4812 55.8111 8.4812C54.9612 8.4812 54.2064 8.68418 53.5469 9.09008C52.8872 9.48332 52.3671 10.0288 51.9866 10.7265C51.606 11.4115 51.4158 12.1852 51.4158 13.0479C51.4158 13.8978 51.606 14.6715 51.9866 15.3692C52.3671 16.0669 52.8872 16.6187 53.5469 17.0246C54.2064 17.4305 54.9612 17.6335 55.8111 17.6335C56.4327 17.6335 56.9972 17.513 57.5046 17.272C57.7503 17.1552 57.9723 17.0176 58.1705 16.8592V17.4432C58.1705 18.0901 57.9612 18.5912 57.5426 18.9464C57.1367 19.3016 56.5722 19.4791 55.8492 19.4791C55.2657 19.4791 54.7646 19.3777 54.346 19.1747C53.9401 18.9718 53.5722 18.6736 53.2424 18.2804L51.4538 20.069C51.8978 20.7033 52.5003 21.1917 53.2614 21.5341ZM57.4094 14.7793C57.1176 14.9569 56.7689 15.0457 56.3629 15.0457C55.957 15.0457 55.6018 14.9569 55.2974 14.7793C55.0056 14.6017 54.7773 14.3607 54.6124 14.0563C54.4475 13.7392 54.365 13.403 54.365 13.0479C54.365 12.6673 54.4475 12.3248 54.6124 12.0204C54.7773 11.7159 55.0119 11.4749 55.3164 11.2973C55.6208 11.1197 55.9697 11.0309 56.3629 11.0309C56.7689 11.0309 57.1176 11.1197 57.4094 11.2973C57.7139 11.4749 57.9422 11.7159 58.0944 12.0204C58.2593 12.3248 58.3418 12.6673 58.3418 13.0479C58.3418 13.4284 58.2593 13.7709 58.0944 14.0753C57.9422 14.3671 57.7139 14.6017 57.4094 14.7793Z" fill="#007DFC"/>
<path fill-rule="evenodd" clip-rule="evenodd" d="M67.2086 18.1282C66.257 18.1282 65.3942 17.9189 64.6208 17.5003C63.8594 17.069 63.257 16.4855 62.813 15.7497C62.369 15.014 62.147 14.1895 62.147 13.2761C62.147 12.3628 62.369 11.5447 62.813 10.8216C63.257 10.0985 63.8594 9.5277 64.6208 9.10914C65.3816 8.6778 66.2444 8.46216 67.2086 8.46216C68.1722 8.46216 69.035 8.6715 69.7958 9.09006C70.5572 9.50868 71.1596 10.0859 71.6036 10.8216C72.0476 11.5447 72.2696 12.3628 72.2696 13.2761C72.2696 14.1895 72.0476 15.014 71.6036 15.7497C71.1596 16.4855 70.5572 17.069 69.7958 17.5003C69.035 17.9189 68.1722 18.1282 67.2086 18.1282ZM67.2086 15.4834C67.6268 15.4834 67.9946 15.3946 68.312 15.217C68.6288 15.0267 68.87 14.7667 69.035 14.4368C69.2126 14.0944 69.3014 13.7074 69.3014 13.2761C69.3014 12.8449 69.2126 12.4706 69.035 12.1535C68.8574 11.8237 68.6102 11.57 68.2928 11.3924C67.9886 11.2021 67.6268 11.107 67.2086 11.107C66.8024 11.107 66.4406 11.2021 66.1238 11.3924C65.8064 11.57 65.5592 11.8237 65.3816 12.1535C65.204 12.4834 65.1152 12.8639 65.1152 13.2952C65.1152 13.7138 65.204 14.0944 65.3816 14.4368C65.5592 14.7667 65.8064 15.0267 66.1238 15.217C66.4406 15.3946 66.8024 15.4834 67.2086 15.4834Z" fill="#007DFC"/>
<path fill-rule="evenodd" clip-rule="evenodd" d="M83.2466 18.1092C82.6256 18.1092 82.0544 17.9887 81.5342 17.7477C81.2606 17.6208 81.0134 17.4694 80.7926 17.2933V21.8196H77.9192V8.67152H80.8304V9.30974C81.0416 9.137 81.2762 8.98766 81.5342 8.86178C82.0544 8.60804 82.6256 8.4812 83.2466 8.4812C84.122 8.4812 84.896 8.69054 85.568 9.10916C86.2532 9.52772 86.786 10.0986 87.1664 10.8216C87.56 11.5447 87.7562 12.3692 87.7562 13.2952C87.7562 14.2212 87.56 15.0457 87.1664 15.7688C86.786 16.4919 86.2532 17.0626 85.568 17.4813C84.896 17.8999 84.122 18.1092 83.2466 18.1092ZM82.7144 15.4834C83.1326 15.4834 83.4944 15.3882 83.7986 15.198C84.116 15.0077 84.3632 14.7476 84.5408 14.4178C84.7184 14.088 84.8072 13.7138 84.8072 13.2952C84.8072 12.8639 84.7184 12.4834 84.5408 12.1536C84.3632 11.8237 84.116 11.5701 83.7986 11.3925C83.4944 11.2021 83.1392 11.107 82.733 11.107C82.3274 11.107 81.9656 11.2021 81.6488 11.3925C81.344 11.5701 81.1034 11.8237 80.9258 12.1536C80.7482 12.4834 80.6594 12.8639 80.6594 13.2952C80.6594 13.7138 80.7416 14.088 80.9066 14.4178C81.0842 14.7476 81.3314 15.0077 81.6488 15.198C81.9656 15.3882 82.3208 15.4834 82.7144 15.4834Z" fill="#007DFC"/>
<path d="M90.6055 17.938C91.1383 18.0775 91.6771 18.1472 92.2225 18.1472C93.3769 18.1472 94.2901 17.8809 94.9627 17.3481C95.6473 16.8154 95.9899 16.0987 95.9899 15.198C95.9899 14.6145 95.8825 14.1451 95.6665 13.79C95.4511 13.4221 95.1721 13.1303 94.8295 12.9147C94.4869 12.6991 94.1251 12.5278 93.7447 12.4009C93.3643 12.2741 93.0025 12.1663 92.6605 12.0775C92.3179 11.9887 92.0389 11.8872 91.8229 11.773C91.6075 11.6588 91.4995 11.5066 91.4995 11.3164C91.4995 11.1388 91.5823 11.0056 91.7467 10.9168C91.9117 10.8153 92.1589 10.7646 92.4889 10.7646C92.8315 10.7646 93.1801 10.8343 93.5353 10.9739C93.9031 11.1134 94.2331 11.3545 94.5247 11.6969L96.1801 10.0225C95.7619 9.48971 95.2165 9.09011 94.5439 8.82377C93.8845 8.54471 93.1615 8.40515 92.3749 8.40515C91.6267 8.40515 90.9733 8.53199 90.4153 8.78567C89.8567 9.03941 89.4253 9.38825 89.1211 9.83219C88.8169 10.2635 88.6645 10.7773 88.6645 11.3735C88.6645 11.9316 88.7725 12.3946 88.9879 12.7625C89.2033 13.1176 89.4829 13.3967 89.8249 13.5997C90.1675 13.8026 90.5293 13.9612 90.9097 14.0753C91.2901 14.1895 91.6519 14.2973 91.9945 14.3989C92.3365 14.4877 92.6161 14.5955 92.8315 14.7223C93.0601 14.8365 93.1741 15.0077 93.1741 15.236C93.1741 15.4136 93.0787 15.5531 92.8885 15.6547C92.7109 15.7561 92.4511 15.8069 92.1085 15.8069C91.6135 15.8069 91.1569 15.7181 90.7387 15.5405C90.3199 15.3502 89.9581 15.0902 89.6539 14.7604L87.9985 16.4348C88.3159 16.7773 88.6963 17.0818 89.1403 17.3481C89.5969 17.6018 90.0853 17.7984 90.6055 17.938Z" fill="#007DFC"/>
<path d="M101.299 18.1282C100.449 18.1282 99.6943 17.9569 99.0349 17.6144C98.3875 17.2592 97.8805 16.7772 97.5127 16.1683C97.1443 15.5468 96.9607 14.8364 96.9607 14.0372V8.67151H99.8719V13.9992C99.8719 14.3163 99.9223 14.5891 100.024 14.8174C100.138 15.0457 100.303 15.2233 100.519 15.3502C100.735 15.477 100.994 15.5404 101.299 15.5404C101.73 15.5404 102.073 15.4072 102.326 15.1408C102.58 14.8618 102.707 14.4812 102.707 13.9992V8.67151H105.618V14.0182C105.618 14.8301 105.434 15.5468 105.066 16.1683C104.698 16.7772 104.191 17.2592 103.544 17.6144C102.897 17.9569 102.149 18.1282 101.299 18.1282Z" fill="#007DFC"/>
<path d="M109.977 8.67152H107.065V17.9189H109.977V12.5151C109.977 12.198 110.04 11.9316 110.167 11.7159C110.307 11.5003 110.491 11.3353 110.719 11.2212C110.947 11.0943 111.207 11.0309 111.499 11.0309C111.918 11.0309 112.266 11.1641 112.545 11.4305C112.837 11.6842 112.983 12.0457 112.983 12.5151V17.9189H115.894V12.5151C115.894 12.198 115.958 11.9316 116.085 11.7159C116.224 11.5003 116.408 11.3353 116.637 11.2212C116.865 11.0943 117.125 11.0309 117.417 11.0309C117.835 11.0309 118.184 11.1641 118.463 11.4305C118.755 11.6842 118.9 12.0457 118.9 12.5151V17.9189H121.812V12.1916C121.812 11.4178 121.647 10.7582 121.317 10.2127C121 9.65456 120.562 9.22964 120.004 8.93792C119.459 8.63342 118.831 8.4812 118.12 8.4812C117.397 8.4812 116.744 8.63978 116.161 8.95694C115.782 9.15896 115.45 9.41972 115.167 9.73916C114.902 9.40502 114.58 9.1316 114.201 8.91884C113.694 8.62712 113.116 8.4812 112.47 8.4812C111.784 8.4812 111.169 8.62712 110.624 8.91884C110.386 9.04022 110.171 9.1856 109.977 9.35498V8.67152Z" fill="#007DFC"/>
</g>
<defs>
<clipPath id="clip0_175_3957">
<rect width="121.2" height="24" fill="white" transform="translate(0.87793)"/>
</clipPath>
</defs>
</svg>
