<svg width="100" height="24" viewBox="0 0 100 24" fill="none" xmlns="http://www.w3.org/2000/svg">
<g clip-path="url(#clip0_175_3970)">
<path d="M30.0942 17.1648H37.0905V15.0574H32.5809V7.11987H30.0942V17.1648Z" fill="#2F234F"/>
<path d="M41.2355 15.7599C40.238 15.7599 39.7182 14.8889 39.7182 13.5824C39.7182 12.2758 40.238 11.3908 41.2355 11.3908C42.2329 11.3908 42.7668 12.2758 42.7668 13.5824C42.7668 14.8889 42.2329 15.7599 41.2355 15.7599ZM41.2495 17.3896C43.5676 17.3896 45.0848 15.7459 45.0848 13.5824C45.0848 11.4189 43.5676 9.77515 41.2495 9.77515C38.9455 9.77515 37.4001 11.4189 37.4001 13.5824C37.4001 15.7459 38.9455 17.3896 41.2495 17.3896Z" fill="#2F234F"/>
<path d="M49.0972 19.6515C50.1649 19.6515 51.1061 19.4126 51.7383 18.8507C52.3143 18.3309 52.6936 17.5441 52.6936 16.4624V9.97184H50.502V10.7445H50.4739C50.0525 10.1404 49.4062 9.76111 48.4509 9.76111C46.6667 9.76111 45.4304 11.2503 45.4304 13.3576C45.4304 15.5633 46.9336 16.7715 48.5493 16.7715C49.4203 16.7715 49.9682 16.4202 50.3896 15.9426H50.4458V16.6591C50.4458 17.5301 50.0384 18.0358 49.0691 18.0358C48.3104 18.0358 47.9311 17.7127 47.8047 17.3334H45.585C45.8097 18.8366 47.1163 19.6515 49.0972 19.6515ZM49.0831 15.0715C48.2261 15.0715 47.6642 14.3691 47.6642 13.2874C47.6642 12.1915 48.2261 11.4891 49.0831 11.4891C50.0384 11.4891 50.5442 12.3039 50.5442 13.2733C50.5442 14.2848 50.0806 15.0715 49.0831 15.0715Z" fill="#2F234F"/>
<path d="M57.2001 15.7599C56.2026 15.7599 55.6828 14.8889 55.6828 13.5824C55.6828 12.2758 56.2026 11.3908 57.2001 11.3908C58.1975 11.3908 58.7311 12.2758 58.7311 13.5824C58.7311 14.8889 58.1975 15.7599 57.2001 15.7599ZM57.2141 17.3896C59.5319 17.3896 61.0492 15.7459 61.0492 13.5824C61.0492 11.4189 59.5319 9.77515 57.2141 9.77515C54.9101 9.77515 53.3647 11.4189 53.3647 13.5824C53.3647 15.7459 54.9101 17.3896 57.2141 17.3896Z" fill="#2F234F"/>
<path d="M61.7183 17.1648H64.0082V9.97178H61.7183V17.1648ZM61.7183 8.97431H64.0082V7.11987H61.7183V8.97431Z" fill="#2F234F"/>
<path d="M65.0017 19.5391H67.2917V16.4202H67.3198C67.7693 17.0243 68.4296 17.3896 69.3568 17.3896C71.2394 17.3896 72.4897 15.9004 72.4897 13.5683C72.4897 11.4048 71.3237 9.76111 69.413 9.76111C68.4296 9.76111 67.7272 10.1966 67.2355 10.8429H67.1933V9.97184H65.0017V19.5391ZM68.7668 15.6195C67.7834 15.6195 67.2214 14.8187 67.2214 13.6526C67.2214 12.4866 67.7272 11.6015 68.7246 11.6015C69.7081 11.6015 70.1717 12.4163 70.1717 13.6526C70.1717 14.8749 69.6378 15.6195 68.7668 15.6195Z" fill="#2F234F"/>
<path d="M76.2179 17.3896C78.1004 17.3896 79.4912 16.5748 79.4912 15.0013C79.4912 13.1609 78.0021 12.8378 76.7377 12.6271C75.8245 12.4585 75.0097 12.3882 75.0097 11.8825C75.0097 11.4329 75.4452 11.2222 76.0071 11.2222C76.6393 11.2222 77.0748 11.4189 77.1591 12.0651H79.2665C79.1541 10.6462 78.0583 9.76111 76.0212 9.76111C74.3213 9.76111 72.9164 10.5478 72.9164 12.0651C72.9164 13.751 74.251 14.0881 75.5014 14.2989C76.4567 14.4675 77.3277 14.5377 77.3277 15.1839C77.3277 15.6475 76.8922 15.9004 76.2038 15.9004C75.4452 15.9004 74.9675 15.5492 74.8832 14.8327H72.7197C72.79 16.4202 74.1106 17.3896 76.2179 17.3896Z" fill="#2F234F"/>
<path d="M82.6018 17.3755C83.5992 17.3755 84.2314 16.9821 84.7512 16.2797H84.7934V17.1648H86.985V9.9718H84.695V13.9898C84.695 14.8467 84.2174 15.4368 83.4307 15.4368C82.7001 15.4368 82.3489 15.0013 82.3489 14.2145V9.9718H80.073V14.6922C80.073 16.2938 80.944 17.3755 82.6018 17.3755Z" fill="#2F234F"/>
<path d="M87.9814 17.1648H90.2714V13.1328C90.2714 12.2758 90.6929 11.6717 91.4093 11.6717C92.0977 11.6717 92.4209 12.1213 92.4209 12.894V17.1648H94.7108V13.1328C94.7108 12.2758 95.1182 11.6717 95.8488 11.6717C96.5372 11.6717 96.8603 12.1213 96.8603 12.894V17.1648H99.1502V12.4866C99.1502 10.871 98.3354 9.76111 96.7057 9.76111C95.7785 9.76111 95.0058 10.1545 94.4439 11.0255H94.4158C94.0505 10.2528 93.334 9.76111 92.3928 9.76111C91.3531 9.76111 90.6648 10.2528 90.2152 10.9974H90.1731V9.97184H87.9814V17.1648Z" fill="#2F234F"/>
<path fill-rule="evenodd" clip-rule="evenodd" d="M11.8447 23.6038C18.3106 23.6038 23.5521 18.3623 23.5521 11.8965C23.5521 5.43075 18.3106 0.189209 11.8447 0.189209C5.37899 0.189209 0.137451 5.43075 0.137451 11.8965C0.137451 18.3623 5.37899 23.6038 11.8447 23.6038ZM13.6518 9.23461C14.6497 8.23662 14.6497 6.61861 13.6518 5.62062C12.6538 4.62264 11.0358 4.62264 10.0378 5.62062C9.03985 6.61861 9.03985 8.23662 10.0378 9.23461L11.8447 11.0416L13.6518 9.23461ZM14.5067 13.7035C15.5047 14.7015 17.1227 14.7015 18.1207 13.7035C19.1186 12.7055 19.1186 11.0875 18.1207 10.0895C17.1227 9.0916 15.5047 9.0916 14.5067 10.0895L12.6997 11.8966L14.5067 13.7035ZM13.6518 18.1724C14.6497 17.1745 14.6497 15.5564 13.6518 14.5585L11.8447 12.7515L10.0378 14.5585C9.03985 15.5564 9.03985 17.1745 10.0378 18.1724C11.0358 19.1704 12.6538 19.1704 13.6518 18.1724ZM5.56884 13.7035C4.57089 12.7055 4.57089 11.0875 5.56884 10.0895C6.56685 9.0916 8.18486 9.0916 9.18285 10.0895L10.9898 11.8966L9.18285 13.7035C8.18486 14.7015 6.56685 14.7015 5.56884 13.7035Z" fill="#7F57F1"/>
</g>
<defs>
<clipPath id="clip0_175_3970">
<rect width="99.5122" height="24" fill="white" transform="translate(0.078125)"/>
</clipPath>
</defs>
</svg>
