<svg width="100" height="24" viewBox="0 0 100 24" fill="none" xmlns="http://www.w3.org/2000/svg">
<g clip-path="url(#clip0_175_4016)">
<path d="M29.626 16.9477H36.6223V14.8404H32.1126V6.90283H29.626V16.9477Z" fill="#3C2B1F"/>
<path d="M40.7672 15.5429C39.7697 15.5429 39.2499 14.6719 39.2499 13.3653C39.2499 12.0588 39.7697 11.1737 40.7672 11.1737C41.7647 11.1737 42.2985 12.0588 42.2985 13.3653C42.2985 14.6719 41.7647 15.5429 40.7672 15.5429ZM40.7813 17.1725C43.0993 17.1725 44.6166 15.5288 44.6166 13.3653C44.6166 11.2018 43.0993 9.55811 40.7813 9.55811C38.4773 9.55811 36.9319 11.2018 36.9319 13.3653C36.9319 15.5288 38.4773 17.1725 40.7813 17.1725Z" fill="#3C2B1F"/>
<path d="M48.6289 19.4344C49.6966 19.4344 50.6379 19.1956 51.2701 18.6336C51.8461 18.1138 52.2254 17.3271 52.2254 16.2453V9.7548H50.0338V10.5275H50.0057C49.5842 9.92338 48.938 9.54407 47.9826 9.54407C46.1985 9.54407 44.9622 11.0332 44.9622 13.1406C44.9622 15.3462 46.4654 16.5544 48.081 16.5544C48.952 16.5544 49.4999 16.2032 49.9214 15.7255H49.9776V16.442C49.9776 17.313 49.5702 17.8188 48.6008 17.8188C47.8422 17.8188 47.4628 17.4957 47.3364 17.1164H45.1167C45.3415 18.6196 46.648 19.4344 48.6289 19.4344ZM48.6148 14.8545C47.7579 14.8545 47.1959 14.1521 47.1959 13.0703C47.1959 11.9745 47.7579 11.2721 48.6148 11.2721C49.5702 11.2721 50.0759 12.0869 50.0759 13.0563C50.0759 14.0678 49.6123 14.8545 48.6148 14.8545Z" fill="#3C2B1F"/>
<path d="M56.7318 15.5429C55.7343 15.5429 55.2145 14.6719 55.2145 13.3653C55.2145 12.0588 55.7343 11.1737 56.7318 11.1737C57.7293 11.1737 58.2631 12.0588 58.2631 13.3653C58.2631 14.6719 57.7293 15.5429 56.7318 15.5429ZM56.7458 17.1725C59.0639 17.1725 60.5809 15.5288 60.5809 13.3653C60.5809 11.2018 59.0639 9.55811 56.7458 9.55811C54.4418 9.55811 52.8965 11.2018 52.8965 13.3653C52.8965 15.5288 54.4418 17.1725 56.7458 17.1725Z" fill="#3C2B1F"/>
<path d="M61.25 16.9477H63.5399V9.75473H61.25V16.9477ZM61.25 8.75727H63.5399V6.90283H61.25V8.75727Z" fill="#3C2B1F"/>
<path d="M64.5332 19.322H66.8232V16.2032H66.8513C67.3008 16.8073 67.9611 17.1726 68.8883 17.1726C70.7709 17.1726 72.0212 15.6834 72.0212 13.3513C72.0212 11.1878 70.8552 9.54407 68.9445 9.54407C67.9611 9.54407 67.2587 9.97958 66.767 10.6258H66.7248V9.7548H64.5332V19.322ZM68.2983 15.4024C67.3149 15.4024 66.7529 14.6016 66.7529 13.4356C66.7529 12.2695 67.2587 11.3845 68.2561 11.3845C69.2395 11.3845 69.7032 12.1993 69.7032 13.4356C69.7032 14.6578 69.1693 15.4024 68.2983 15.4024Z" fill="#3C2B1F"/>
<path d="M75.7496 17.1726C77.6322 17.1726 79.023 16.3577 79.023 14.7843C79.023 12.9439 77.5338 12.6208 76.2694 12.41C75.3562 12.2414 74.5414 12.1712 74.5414 11.6654C74.5414 11.2159 74.9769 11.0051 75.5389 11.0051C76.1711 11.0051 76.6066 11.2018 76.6909 11.8481H78.7982C78.6858 10.4291 77.59 9.54407 75.5529 9.54407C73.853 9.54407 72.4481 10.3308 72.4481 11.8481C72.4481 13.5339 73.7828 13.8711 75.0331 14.0818C75.9884 14.2504 76.8595 14.3207 76.8595 14.9669C76.8595 15.4305 76.424 15.6834 75.7356 15.6834C74.9769 15.6834 74.4993 15.3322 74.415 14.6157H72.2515C72.3217 16.2032 73.6423 17.1726 75.7496 17.1726Z" fill="#3C2B1F"/>
<path d="M82.1335 17.1585C83.131 17.1585 83.7632 16.7651 84.283 16.0627H84.3251V16.9477H86.5167V9.75476H84.2268V13.7727C84.2268 14.6297 83.7491 15.2197 82.9624 15.2197C82.2319 15.2197 81.8806 14.7842 81.8806 13.9975V9.75476H79.6047V14.4752C79.6047 16.0767 80.4758 17.1585 82.1335 17.1585Z" fill="#3C2B1F"/>
<path d="M87.5129 16.9478H89.8029V12.9158C89.8029 12.0588 90.2244 11.4547 90.9408 11.4547C91.6292 11.4547 91.9524 11.9043 91.9524 12.6769V16.9478H94.2423V12.9158C94.2423 12.0588 94.6497 11.4547 95.3803 11.4547C96.0686 11.4547 96.3918 11.9043 96.3918 12.6769V16.9478H98.6817V12.2695C98.6817 10.6539 97.8669 9.54407 96.2372 9.54407C95.31 9.54407 94.5373 9.93743 93.9754 10.8085H93.9473C93.582 10.0358 92.8655 9.54407 91.9243 9.54407C90.8846 9.54407 90.1963 10.0358 89.7467 10.7804H89.7046V9.7548H87.5129V16.9478Z" fill="#3C2B1F"/>
<path d="M15.6546 1.15718L13.3524 0.540283L11.4122 7.78101L9.66064 1.24403L7.35834 1.86093L9.25083 8.92364L4.53709 4.20993L2.85171 5.89531L8.02208 11.0657L1.5832 9.34042L0.966309 11.6427L8.0016 13.5278C7.92105 13.1804 7.87844 12.8184 7.87844 12.4464C7.87844 9.81369 10.0127 7.67945 12.6454 7.67945C15.2782 7.67945 17.4124 9.81369 17.4124 12.4464C17.4124 12.816 17.3703 13.1757 17.2908 13.5211L23.6845 15.2343L24.3014 12.9321L17.2381 11.0394L23.6775 9.31402L23.0605 7.01178L15.9976 8.90427L20.7113 4.19058L19.0259 2.5052L13.9273 7.60387L15.6546 1.15718Z" fill="#F97316"/>
<path d="M17.2845 13.548C17.0871 14.3825 16.6704 15.1321 16.0986 15.7328L20.7306 20.3649L22.416 18.6795L17.2845 13.548Z" fill="#F97316"/>
<path d="M16.0517 15.7812C15.473 16.3723 14.7417 16.8134 13.9216 17.0407L15.6071 23.331L17.9094 22.7141L16.0517 15.7812Z" fill="#F97316"/>
<path d="M13.8358 17.0637C13.4553 17.1615 13.0565 17.2134 12.6455 17.2134C12.2052 17.2134 11.7788 17.1537 11.374 17.042L9.68701 23.3381L11.9893 23.9549L13.8358 17.0637Z" fill="#F97316"/>
<path d="M11.2925 17.0188C10.485 16.7802 9.76667 16.3335 9.1998 15.7407L4.5564 20.3841L6.24178 22.0695L11.2925 17.0188Z" fill="#F97316"/>
<path d="M9.16114 15.6996C8.60399 15.1032 8.19815 14.3635 8.00498 13.5419L1.59033 15.2607L2.20722 17.5629L9.16114 15.6996Z" fill="#F97316"/>
</g>
<defs>
<clipPath id="clip0_175_4016">
<rect width="98.3415" height="24" fill="white" transform="translate(0.780518)"/>
</clipPath>
</defs>
</svg>
