<svg width="132" height="24" viewBox="0 0 132 24" fill="none" xmlns="http://www.w3.org/2000/svg">
<g clip-path="url(#clip0_175_3993)">
<path d="M73.8813 17.7143H76.6791V7.16114H73.8813V17.7143ZM73.8813 5.51545H76.6791V3.00574H73.8813V5.51545Z" fill="#0D140F"/>
<path d="M78.4819 21.1703H81.2797V16.5212H81.3205C81.9169 17.4263 82.8841 18.0229 84.3649 18.0229C87.0805 18.0229 88.9321 15.8629 88.9321 12.4481C88.9321 9.15659 87.1423 6.87317 84.3445 6.87317C82.9045 6.87317 81.9169 7.55207 81.2383 8.47775H81.1765V7.16117H78.4819V21.1703ZM83.7685 15.6983C82.1023 15.6983 81.2179 14.4435 81.2179 12.5303C81.2179 10.6377 81.9169 9.13607 83.6659 9.13607C85.3939 9.13607 86.0929 10.5349 86.0929 12.5303C86.0929 14.5257 85.1881 15.6983 83.7685 15.6983Z" fill="#0D140F"/>
<path d="M94.513 18.0229C97.1464 18.0229 98.9566 16.7475 98.9566 14.6286C98.9566 12.1601 97.0024 11.6663 95.233 11.2961C93.7312 10.9875 92.3326 10.9052 92.3326 10.0001C92.3326 9.23891 93.0526 8.82749 94.1428 8.82749C95.3362 8.82749 96.0562 9.23891 96.1792 10.3703H98.7094C98.5042 8.25149 96.961 6.87317 94.1842 6.87317C91.777 6.87317 89.8846 7.96349 89.8846 10.2469C89.8846 12.5509 91.7362 13.0652 93.6286 13.4355C95.0686 13.7235 96.4054 13.8263 96.4054 14.8343C96.4054 15.5749 95.7064 16.0481 94.4722 16.0481C93.217 16.0481 92.353 15.5132 92.1682 14.2995H89.5762C89.7406 16.5417 91.4482 18.0229 94.513 18.0229Z" fill="#0D140F"/>
<path d="M109.578 17.7143V7.16113H106.78V13.2503C106.78 14.6491 105.978 15.6366 104.662 15.6366C103.468 15.6366 102.913 14.9577 102.913 13.7235V7.16113H100.136V14.1966C100.136 16.5006 101.452 18.0023 103.798 18.0023C105.279 18.0023 106.102 17.4469 106.822 16.48H106.884V17.7143H109.578Z" fill="#0D140F"/>
<path d="M111.388 17.7143H114.186V11.5841C114.186 10.1852 114.947 9.28007 116.079 9.28007C117.107 9.28007 117.704 9.89717 117.704 11.0903V17.7143H120.501V11.5841C120.501 10.1852 121.221 9.28007 122.394 9.28007C123.423 9.28007 124.019 9.89717 124.019 11.0903V17.7143H126.817V10.6172C126.817 8.31317 125.562 6.87317 123.34 6.87317C122.003 6.87317 120.892 7.57259 120.172 8.72459H120.131C119.617 7.61375 118.547 6.87317 117.21 6.87317C115.749 6.87317 114.721 7.61375 114.145 8.58059H114.083V7.16117H111.388V17.7143Z" fill="#0D140F"/>
<path d="M0.962646 17.7143H3.76036V3.00574H0.962646V17.7143Z" fill="#0D140F"/>
<path d="M10.6013 18.0229C13.8721 18.0229 16.1144 15.5955 16.1144 12.4481C16.1144 9.30059 13.8721 6.87317 10.6013 6.87317C7.33041 6.87317 5.08813 9.30059 5.08813 12.4481C5.08813 15.5955 7.33041 18.0229 10.6013 18.0229ZM10.6013 15.8835C8.87331 15.8835 7.92699 14.5052 7.92699 12.4481C7.92699 10.3909 8.87331 8.99207 10.6013 8.99207C12.3087 8.99207 13.2756 10.3909 13.2756 12.4481C13.2756 14.5052 12.3087 15.8835 10.6013 15.8835Z" fill="#0D140F"/>
<path d="M22.0641 21.3143C23.6275 21.3143 24.9852 20.9441 25.8697 20.1212C26.6515 19.4012 27.1246 18.3932 27.1246 16.9121V7.16117H24.4298V8.27207H24.3886C23.7509 7.38749 22.7841 6.87317 21.4675 6.87317C18.7932 6.87317 16.9006 8.88917 16.9006 12.0366C16.9006 15.2252 19.2046 17.0766 21.5498 17.0766C22.8869 17.0766 23.6892 16.5417 24.3063 15.8423H24.3681V16.9943C24.3681 18.4343 23.6069 19.1955 22.0229 19.1955C20.7269 19.1955 20.1303 18.6812 19.9041 18.0229H17.1269C17.4149 20.0801 19.1841 21.3143 22.0641 21.3143ZM22.0229 14.8343C20.5829 14.8343 19.6366 13.7852 19.6366 11.9955C19.6366 10.2263 20.5829 9.11549 22.0023 9.11549C23.6892 9.11549 24.5121 10.4321 24.5121 11.9749C24.5121 13.5383 23.7921 14.8343 22.0229 14.8343Z" fill="#0D140F"/>
<path d="M33.925 18.0229C37.1959 18.0229 39.4382 15.5955 39.4382 12.4481C39.4382 9.30059 37.1959 6.87317 33.925 6.87317C30.6542 6.87317 28.4119 9.30059 28.4119 12.4481C28.4119 15.5955 30.6542 18.0229 33.925 18.0229ZM33.925 15.8835C32.197 15.8835 31.2508 14.5052 31.2508 12.4481C31.2508 10.3909 32.197 8.99207 33.925 8.99207C35.6324 8.99207 36.5993 10.3909 36.5993 12.4481C36.5993 14.5052 35.6324 15.8835 33.925 15.8835Z" fill="#0D140F"/>
<path d="M127.833 5.42855C127.833 4.95517 128.217 4.57141 128.691 4.57141H130.405C130.878 4.57141 131.262 4.95517 131.262 5.42855C131.262 5.90194 130.878 6.2857 130.405 6.2857H128.691C128.217 6.2857 127.833 5.90194 127.833 5.42855Z" fill="#0D140F"/>
<path fill-rule="evenodd" clip-rule="evenodd" d="M56.4048 0C63.032 0 68.405 5.37259 68.405 12C68.405 18.6274 63.032 24 56.4048 24C49.7774 24 44.4048 18.6274 44.4048 12C44.4048 5.37259 49.7774 0 56.4048 0ZM55.971 0.897954C54.602 1.09061 53.2985 2.19065 52.2866 4.03044C51.993 4.5641 51.7282 5.15368 51.4974 5.79026C52.8734 5.4445 54.3848 5.24065 55.971 5.20912V0.897954ZM50.4832 6.07848C50.7702 5.17775 51.1213 4.34904 51.5265 3.61239C52.0281 2.70035 52.6234 1.91277 53.2941 1.30786C49.6468 2.36714 46.7719 5.24207 45.7126 8.88942C46.3175 8.21868 47.1051 7.62336 48.0171 7.12176C48.7538 6.71658 49.5825 6.36546 50.4832 6.07848ZM50.195 7.09266C49.8492 8.46858 49.6454 9.98004 49.6139 11.5663H45.3027C45.4953 10.1972 46.5954 8.89368 48.4352 7.88184C48.9689 7.58832 49.5584 7.32348 50.195 7.09266ZM50.4815 11.5663C50.5173 9.8352 50.7666 8.21004 51.1789 6.77412C52.6148 6.3618 54.24 6.11256 55.971 6.07674V7.95048C55.3253 9.60372 54.0081 10.9207 52.3548 11.5663H50.4815ZM49.6139 12.4337H45.3027C45.4953 13.8028 46.5954 15.1063 48.4352 16.1182C48.9689 16.4117 49.5584 16.6765 50.195 16.9073C49.8492 15.5314 49.6454 14.02 49.6139 12.4337ZM51.1789 17.2259C50.7666 15.79 50.5173 14.1648 50.4815 12.4337H52.3548C54.0081 13.0793 55.3253 14.3963 55.971 16.0495V17.9233C54.24 17.8874 52.6148 17.6382 51.1789 17.2259ZM50.4832 17.9215C49.5825 17.6345 48.7538 17.2834 48.0171 16.8782C47.1051 16.3766 46.3175 15.7813 45.7126 15.1106C46.7719 18.7579 49.6468 21.6329 53.2941 22.6921C52.6234 22.0872 52.0281 21.2996 51.5265 20.3876C51.1213 19.651 50.7702 18.8222 50.4832 17.9215ZM55.971 23.102C54.602 22.9094 53.2985 21.8093 52.2866 19.9696C51.993 19.4359 51.7282 18.8463 51.4974 18.2098C52.8734 18.5555 54.3848 18.7594 55.971 18.7909V23.102ZM59.5154 22.6921C60.1861 22.0872 60.7814 21.2996 61.283 20.3876C61.688 19.651 62.0396 18.8222 62.3264 17.9215C63.227 17.6345 64.0556 17.2834 64.7924 16.8782C65.7044 16.3766 66.4922 15.7813 67.097 15.1106C66.0374 18.7579 63.1628 21.6329 59.5154 22.6921ZM61.3124 18.2098C61.0814 18.8463 60.8162 19.4359 60.5228 19.9696C59.511 21.8093 58.2075 22.9094 56.8385 23.102V18.7909C58.4247 18.7594 59.9361 18.5555 61.3124 18.2098ZM62.6144 16.9073C63.251 16.6765 63.8408 16.4117 64.3742 16.1182C66.2144 15.1063 67.3142 13.8028 67.5068 12.4337H63.1958C63.164 14.02 62.96 15.5314 62.6144 16.9073ZM62.3282 12.4337C62.2922 14.1648 62.0432 15.79 61.6304 17.2259C60.1947 17.6382 58.5695 17.8874 56.8385 17.9233V16.0509C57.4841 14.3971 58.8015 13.0795 60.4552 12.4337H62.3282ZM63.1958 11.5663H67.5068C67.3142 10.1972 66.2144 8.89368 64.3742 7.88184C63.8408 7.58832 63.251 7.32348 62.6144 7.09266C62.96 8.46858 63.164 9.98004 63.1958 11.5663ZM61.6304 6.77412C62.0432 8.21004 62.2922 9.8352 62.3282 11.5663H60.4553C58.8015 10.9205 57.4841 9.60294 56.8385 7.9491V6.07674C58.5695 6.11256 60.1947 6.3618 61.6304 6.77412ZM62.3264 6.07848C63.227 6.36546 64.0556 6.71658 64.7924 7.12176C65.7044 7.62336 66.4922 8.21868 67.097 8.88942C66.0374 5.24207 63.1628 2.36714 59.5154 1.30786C60.1861 1.91277 60.7814 2.70035 61.283 3.61239C61.688 4.34904 62.0396 5.17775 62.3264 6.07848ZM56.8385 0.897954C58.2075 1.09061 59.511 2.19065 60.5228 4.03044C60.8162 4.5641 61.0814 5.15368 61.3124 5.79026C59.9361 5.4445 58.4247 5.24065 56.8385 5.20912V0.897954Z" fill="#0D140F"/>
</g>
<defs>
<clipPath id="clip0_175_3993">
<rect width="130.8" height="24" fill="white" transform="translate(0.468262)"/>
</clipPath>
</defs>
</svg>
