<svg width="110" height="24" viewBox="0 0 110 24" fill="none" xmlns="http://www.w3.org/2000/svg">
<g clip-path="url(#clip0_175_3981)">
<path fill-rule="evenodd" clip-rule="evenodd" d="M35.1487 1.59725C35.1487 0.783949 35.8152 0.124634 36.6374 0.124634H39.231C39.8162 0.124634 40.3833 0.325238 40.8358 0.692299L41.6248 1.33227L41.6445 1.35007C41.6627 1.34399 41.6809 1.33806 41.6992 1.33227C43.1225 0.881308 44.8495 0.795546 46.6121 0.795546C48.3747 0.795546 50.1016 0.881308 51.525 1.33227C51.5433 1.33806 51.5615 1.34399 51.5797 1.35007L51.5994 1.33227L52.3883 0.692299C52.8408 0.325238 53.408 0.124634 53.9932 0.124634H56.5867C57.409 0.124634 58.0755 0.783949 58.0755 1.59725V2.5076C58.0755 3.21194 57.7755 3.8837 57.2492 4.35808L56.6127 4.93174C56.302 5.21179 55.9291 5.4156 55.524 5.52671L55.3734 5.56802C55.9632 6.95997 56.289 8.44786 56.289 9.65149C56.289 14.4933 53.2604 16.5844 50.5918 18.4269C48.4903 19.8779 46.6121 21.1747 46.6121 23.5393C46.6121 21.1747 44.7339 19.8779 42.6323 18.4269C39.9638 16.5844 36.9352 14.4933 36.9352 9.65149C36.9352 8.44786 37.261 6.95997 37.8507 5.56802L37.7002 5.52671C37.2951 5.4156 36.9222 5.21179 36.6115 4.93174L35.975 4.35808C35.4486 3.8837 35.1487 3.21194 35.1487 2.5076V1.59725ZM48.5475 13.6098C48.5475 13.8412 48.4455 14.063 48.264 14.2266C48.0826 14.3901 47.8364 14.482 47.5797 14.482C47.3582 14.482 47.1444 14.4135 46.9734 14.2895C47.2645 15.0604 48.0096 15.7909 49.143 14.6162C50.1435 13.5247 49.0985 11.2225 48.0804 9.85637C47.7411 9.40101 47.184 9.18185 46.6121 9.18185C46.0402 9.18185 45.4831 9.40101 45.1437 9.85637C44.1257 11.2225 43.0807 13.5247 44.0812 14.6162C45.2145 15.7909 45.9596 15.0604 46.2508 14.2895C46.0797 14.4135 45.866 14.482 45.6444 14.482C45.3877 14.482 45.1416 14.3901 44.9601 14.2266C44.7787 14.063 44.6767 13.8412 44.6767 13.6098H48.5475ZM42.9063 6.79496H40.2105L42.335 8.47771C42.8026 8.84796 43.4859 8.72959 43.7752 8.22823C44.1405 7.59521 43.6553 6.79496 42.9063 6.79496ZM50.3179 6.79496H53.0137L50.8891 8.47771C50.4216 8.84796 49.7382 8.72959 49.4489 8.22823C49.0837 7.59521 49.5688 6.79496 50.3179 6.79496Z" fill="#72B800"/>
<path d="M61.2869 16.71H63.6752V7.70125H61.2869V16.71ZM61.2869 6.29638H63.6752V4.15393H61.2869V6.29638Z" fill="#355030"/>
<path d="M65.2141 19.6603H67.6024V15.6915H67.6375C68.1468 16.4642 68.9722 16.9735 70.2365 16.9735C72.5546 16.9735 74.1351 15.1296 74.1351 12.2145C74.1351 9.40471 72.6073 7.45544 70.219 7.45544C68.9897 7.45544 68.1468 8.03496 67.5673 8.8252H67.5146V7.7013H65.2141V19.6603ZM69.7273 14.9891C68.3048 14.9891 67.5497 13.9179 67.5497 12.2847C67.5497 10.6691 68.1468 9.38715 69.6395 9.38715C71.1146 9.38715 71.7117 10.5813 71.7117 12.2847C71.7117 13.9881 70.939 14.9891 69.7273 14.9891Z" fill="#355030"/>
<path d="M78.8994 16.9735C81.1473 16.9735 82.6926 15.8847 82.6926 14.0759C82.6926 11.9686 81.0243 11.5472 79.5141 11.2311C78.2321 10.9676 77.038 10.8974 77.038 10.1247C77.038 9.47496 77.6526 9.12374 78.5834 9.12374C79.6019 9.12374 80.2165 9.47496 80.3219 10.4408H82.4819C82.3063 8.63203 80.9892 7.45544 78.6185 7.45544C76.5638 7.45544 74.9482 8.38618 74.9482 10.3354C74.9482 12.3023 76.5287 12.7413 78.1443 13.0574C79.3736 13.3032 80.5151 13.3911 80.5151 14.2515C80.5151 14.8837 79.918 15.2876 78.8643 15.2876C77.7931 15.2876 77.0555 14.8311 76.8975 13.795H74.6848C74.8253 15.7091 76.2829 16.9735 78.8994 16.9735Z" fill="#355030"/>
<path d="M91.7604 16.7101V7.70129H89.3721V12.8993C89.3721 14.0935 88.6873 14.9364 87.5634 14.9364C86.5448 14.9364 86.0707 14.3569 86.0707 13.3032V7.70129H83.7V13.7071C83.7 15.674 84.8239 16.9559 86.8258 16.9559C88.0902 16.9559 88.7926 16.4818 89.4073 15.6564H89.4599V16.7101H91.7604Z" fill="#355030"/>
<path d="M93.3052 16.7101H95.6935V11.4769C95.6935 10.2828 96.3432 9.51008 97.3091 9.51008C98.1871 9.51008 98.6964 10.0369 98.6964 11.0554V16.7101H101.085V11.4769C101.085 10.2828 101.699 9.51008 102.7 9.51008C103.578 9.51008 104.088 10.0369 104.088 11.0554V16.7101H106.476V10.6515C106.476 8.68471 105.405 7.45544 103.508 7.45544C102.367 7.45544 101.418 8.05252 100.804 9.03593H100.769C100.33 8.08764 99.4164 7.45544 98.2749 7.45544C97.0281 7.45544 96.1501 8.08764 95.6583 8.91301H95.6057V7.7013H93.3052V16.7101Z" fill="#355030"/>
<path d="M0.990723 16.71H3.37901V4.15393H0.990723V16.71Z" fill="#355030"/>
<path d="M9.21882 16.9735C12.011 16.9735 13.9252 14.9013 13.9252 12.2145C13.9252 9.52764 12.011 7.45544 9.21882 7.45544C6.4266 7.45544 4.51245 9.52764 4.51245 12.2145C4.51245 14.9013 6.4266 16.9735 9.21882 16.9735ZM9.21882 15.1472C7.7437 15.1472 6.93589 13.9706 6.93589 12.2145C6.93589 10.4584 7.7437 9.26422 9.21882 9.26422C10.6764 9.26422 11.5017 10.4584 11.5017 12.2145C11.5017 13.9706 10.6764 15.1472 9.21882 15.1472Z" fill="#355030"/>
<path d="M19.004 19.7832C20.3386 19.7832 21.4977 19.4672 22.2528 18.7647C22.9201 18.1501 23.324 17.2896 23.324 16.0252V7.7013H21.0235V8.64959H20.9884C20.444 7.89447 19.6186 7.45544 18.4947 7.45544C16.2118 7.45544 14.5962 9.17642 14.5962 11.8632C14.5962 14.5852 16.563 16.1657 18.565 16.1657C19.7064 16.1657 20.3913 15.7091 20.9181 15.112H20.9708V16.0954C20.9708 17.3247 20.3211 17.9745 18.9689 17.9745C17.8625 17.9745 17.3533 17.5354 17.1601 16.9735H14.7894C15.0352 18.7296 16.5455 19.7832 19.004 19.7832ZM18.9689 14.2515C17.7396 14.2515 16.9318 13.3559 16.9318 11.8281C16.9318 10.3179 17.7396 9.36959 18.9513 9.36959C20.3913 9.36959 21.0938 10.4935 21.0938 11.8106C21.0938 13.1452 20.4791 14.2515 18.9689 14.2515Z" fill="#355030"/>
<path d="M29.1292 16.9735C31.9214 16.9735 33.8355 14.9013 33.8355 12.2145C33.8355 9.52764 31.9214 7.45544 29.1292 7.45544C26.337 7.45544 24.4229 9.52764 24.4229 12.2145C24.4229 14.9013 26.337 16.9735 29.1292 16.9735ZM29.1292 15.1472C27.6541 15.1472 26.8463 13.9706 26.8463 12.2145C26.8463 10.4584 27.6541 9.26422 29.1292 9.26422C30.5868 9.26422 31.4121 10.4584 31.4121 12.2145C31.4121 13.9706 30.5868 15.1472 29.1292 15.1472Z" fill="#355030"/>
<path d="M106.368 5.73439C106.368 5.33028 106.695 5.00269 107.1 5.00269H108.563C108.967 5.00269 109.295 5.33028 109.295 5.73439C109.295 6.13848 108.967 6.46611 108.563 6.46611H107.1C106.695 6.46611 106.368 6.13848 106.368 5.73439Z" fill="#355030"/>
</g>
<defs>
<clipPath id="clip0_175_3981">
<rect width="108.878" height="24" fill="white" transform="translate(0.590332)"/>
</clipPath>
</defs>
</svg>
