<svg width="313" height="161" viewBox="0 0 313 161" fill="none" xmlns="http://www.w3.org/2000/svg">
<g clip-path="url(#clip0_66_3438)">
<path d="M138.584 52.8003L137.234 54.5977L136.335 55.4967L134.536 56.4851L134.266 57.2942C134.266 57.2942 133.546 58.0134 133.636 58.4631C133.727 58.9127 133.727 59.7214 133.727 59.7214C133.727 59.7214 132.467 60.8899 131.927 61.2494C131.387 61.6088 130.667 62.4179 130.667 62.4179C130.667 62.4179 130.218 62.9574 129.948 63.1371C129.678 63.3164 129.228 63.8559 128.868 64.3954C128.508 64.935 128.148 65.294 127.969 65.5635C127.789 65.8331 127.249 66.4625 126.979 67.4513C126.709 68.4405 125.989 69.6086 125.989 69.6086L125.809 70.0579C125.899 71.5862 125.899 71.8557 126.079 72.3953C126.259 72.9344 126.439 72.7543 126.259 73.9232C126.079 75.0913 126.079 75.541 125.899 76.0805C125.719 76.6192 125.179 77.608 125 78.0581C124.82 78.5073 125.36 79.316 125.36 79.316C125.36 79.316 125.63 80.4849 125.45 80.7545C125.27 81.0245 125.54 81.5636 125.54 81.5636C125.54 81.5636 126.619 82.1926 126.979 82.5524C127.339 82.9118 127.969 83.4513 128.059 83.7209C128.149 83.9909 128.869 85.2492 128.959 85.5188C129.049 85.7883 129.768 86.7767 129.948 87.0467C130.128 87.3167 131.028 88.3055 131.028 88.3055C131.028 88.3055 132.197 89.2036 132.468 89.5634C132.737 89.9228 133.547 90.1025 133.817 90.3721C134.087 90.6417 134.716 90.5514 135.076 90.8218C135.436 91.0913 136.156 90.6417 136.516 90.8218C136.875 91.0015 137.866 90.6421 138.135 90.4624C138.405 90.2826 139.035 89.6537 139.485 89.9228C139.934 90.192 140.204 89.9228 140.564 90.0127C140.924 90.1025 141.464 89.6537 141.823 89.6537C142.183 89.6537 143.083 89.2938 143.353 89.2938C143.623 89.2938 144.523 88.7539 144.883 88.7539C145.242 88.7539 145.692 88.3953 146.142 88.5746C146.591 88.7539 146.412 88.2156 147.221 88.4848C148.031 88.7539 148.301 88.4848 148.571 88.7539C148.841 89.0239 149.201 88.7547 149.471 89.1141C149.741 89.4732 150.19 89.7427 150.28 90.1025C150.37 90.4624 150.91 90.8222 150.91 90.8222L151.45 90.9116C151.45 90.9116 152.17 90.3725 152.349 90.7323C152.529 91.0917 153.339 91.0023 153.339 91.0023L154.149 91.9008L154.419 92.2602C154.419 92.2602 154.959 93.6987 154.868 94.2378C154.778 94.777 154.778 95.9455 154.509 96.215C154.239 96.485 154.059 97.6535 154.059 97.6535C154.059 97.6535 153.699 98.0129 154.509 98.7321C155.318 99.4518 155.858 100.08 156.128 100.439C156.398 100.799 157.118 101.788 157.207 102.417C157.298 103.046 157.478 103.406 157.838 104.215C158.198 105.024 158.647 105.114 158.737 106.013C158.827 106.912 159.007 106.912 158.917 107.541C158.827 108.17 158.557 108.26 158.827 108.709C159.097 109.159 159.456 109.968 159.367 110.237C159.277 110.507 159.097 111.676 159.097 111.676L158.917 112.215L158.108 113.744L157.568 114.552C157.388 115.181 157.028 115.81 157.118 116.709C157.207 117.608 156.668 117.608 157.388 118.506C158.108 119.406 158.467 120.395 158.917 121.204C159.367 122.012 159.637 122.821 159.726 123.361C159.817 123.9 160.176 124.08 160.356 124.799C160.536 125.518 160.626 125.877 160.626 126.327C160.626 126.776 160.536 127.945 160.716 128.215C160.896 128.484 160.986 129.294 161.076 129.653C161.166 130.013 160.806 130.103 161.346 130.732C161.886 131.361 162.246 131.721 162.605 132.17C162.965 132.62 162.875 132.44 163.145 133.069C163.415 133.698 163.775 134.058 163.865 134.597C163.955 135.136 164.045 136.484 164.315 137.114C164.585 137.743 164.944 138.373 164.944 138.373C164.944 138.373 165.935 139.002 166.294 138.912C166.654 138.822 167.374 138.014 167.914 138.283C168.454 138.552 168.903 138.283 169.353 138.283C169.803 138.283 170.253 137.743 170.703 137.743C171.153 137.743 171.782 137.024 172.143 137.204C172.502 137.383 172.952 137.024 173.402 136.574C173.852 136.125 174.122 135.766 174.931 135.047C175.741 134.328 175.651 134.327 176.19 133.878C176.73 133.428 177.27 132.439 177.9 132.26C178.529 132.08 178.709 131.451 178.889 131.002C179.069 130.552 179.159 130.283 179.429 129.923C179.699 129.564 179.519 130.014 179.969 128.844C180.419 127.676 180.96 127.227 181.409 126.957C181.859 126.687 182.129 126.148 182.399 126.058C182.668 125.968 183.118 126.327 182.939 125.518C182.759 124.71 182.939 123.541 182.759 123.272C182.579 123.001 182.309 123.9 182.399 122.551C182.49 121.204 183.479 119.855 183.479 119.855C183.479 119.855 184.828 118.147 185.278 117.878C185.728 117.608 185.818 117.339 186.448 116.979C187.077 116.62 188.427 115.721 188.427 115.271C188.427 114.822 188.967 113.653 188.967 113.383C188.967 113.114 188.967 112.844 188.787 111.316C188.607 109.788 188.967 110.147 188.427 108.709C187.888 107.271 187.797 105.473 187.438 105.024C187.077 104.574 187.257 103.405 187.257 103.046C187.257 102.687 187.888 101.788 188.157 101.429C188.427 101.069 189.597 99.6303 189.597 99.6303C189.597 99.6303 191.396 97.5632 192.026 96.5748C192.656 95.5856 193.285 94.6871 193.735 94.3277C194.185 93.9683 195.265 93.1584 195.894 92.2598C196.524 91.3613 197.783 89.6537 197.874 89.3833C197.963 89.1141 198.683 88.2152 198.683 88.2152C198.683 88.2152 199.672 87.0463 199.853 86.4173C200.032 85.7879 200.931 82.2824 200.752 82.4621C200.573 82.6422 199.493 82.8215 199.132 82.9114C198.773 83.0017 199.673 83.3607 197.063 83.1814C194.455 83.0013 193.105 83.4509 193.105 83.4509C192.295 83.2708 191.666 84.1698 191.395 82.9114C191.126 81.6534 190.945 80.9342 190.406 80.0353C189.866 79.1363 189.506 78.7769 188.697 77.608C187.888 76.4399 187.977 76.9786 187.257 76.0805C186.537 75.1815 186.357 75.4507 185.908 74.2826C185.458 73.1141 185.098 73.5638 184.558 71.9456C184.018 70.327 183.658 70.1473 183.389 69.2488C183.118 68.3502 182.759 68.0799 182.579 67.2712C182.399 66.4621 180.33 62.3276 180.06 62.0576C179.79 61.7885 179.34 60.3496 179.43 60.6196C179.52 60.8891 180.78 61.7881 180.78 61.7881C180.78 61.7881 181.499 61.5181 181.769 61.5181C182.039 61.5181 183.119 62.5073 183.119 62.8663C183.119 63.2261 185.009 64.9342 185.458 66.1925C185.908 67.4509 186.449 68.3498 186.538 68.7092C186.627 69.0687 187.528 70.5071 187.888 71.0467C188.247 71.5862 189.417 72.6644 189.596 73.204C189.776 73.7435 191.486 75.541 191.486 76.7095C191.486 77.878 192.295 79.4059 192.385 79.7653C192.476 80.1247 194.095 80.5748 194.095 80.5748L196.254 80.0353C196.254 80.0353 199.493 77.9674 199.853 77.9674C200.212 77.9674 203.092 76.6192 203.092 76.6192C203.092 76.6192 204.261 75.541 205.07 74.912C205.88 74.2826 206.78 73.1145 206.96 72.5746C207.14 72.035 207.5 71.9456 208.219 71.1361C208.939 70.327 209.929 69.5183 209.299 68.9788C208.669 68.4397 208.309 68.6194 207.41 67.7204C206.51 66.8219 206.6 67.0016 205.97 65.8327C205.34 64.6646 206.06 63.316 204.71 64.6646C203.361 66.0128 203.901 66.3722 202.551 66.6426C201.202 66.9118 200.662 67.8107 200.032 66.9118C199.403 66.0128 198.773 66.5523 198.413 65.2037C198.053 63.8555 197.783 63.7653 197.693 63.2265C197.604 62.687 197.693 62.687 196.973 61.3384C196.254 59.9902 196.793 57.9227 197.243 59.0912C197.693 60.2598 198.413 60.4395 199.582 61.2486C200.752 62.0572 201.292 62.687 202.371 62.7769C203.451 62.8663 204.351 62.7769 204.53 62.9562C204.71 63.1363 204.89 62.8667 205.34 63.046C205.79 63.2261 205.969 62.7769 206.15 63.4953C206.329 64.2145 207.319 64.3044 207.769 64.7537C208.219 65.2029 208.219 65.0236 209.389 65.2029C210.559 65.383 212.178 65.383 212.178 65.383L213.887 65.2928L215.866 65.4721C215.866 65.4721 217.306 66.2812 217.666 66.2812C218.025 66.2812 218.115 67.2704 219.015 67.8095C219.915 68.349 220.095 68.4385 220.634 69.0679C221.175 69.6972 221.084 69.9668 221.804 70.5958C222.524 71.2256 223.694 70.5063 223.874 70.2372C224.053 69.9672 224.953 69.5179 224.774 70.2372C224.593 70.956 225.673 70.686 225.403 72.3945C225.133 74.1017 224.953 73.6524 225.403 74.8213C225.852 75.9898 227.832 79.5852 227.922 80.6638C228.012 81.7425 228.552 81.3831 228.642 82.3723C228.732 83.3607 229.271 83.7201 229.271 84.4393C229.271 85.1586 229.901 85.3379 229.991 85.8778C230.082 86.4173 231.071 85.9672 231.341 85.8778C231.611 85.7875 232.87 84.619 232.87 84.619C232.87 84.619 233.411 84.4397 233.32 83.5404C233.23 82.6422 233.32 82.8215 233.32 81.4733C233.32 80.1251 232.78 80.1251 233.05 78.7773C233.32 77.4291 234.039 76.6196 234.22 75.9906C234.4 75.3616 235.119 74.283 235.479 74.1927C235.839 74.1029 237.818 73.1145 238.268 72.4847C238.718 71.8557 239.438 71.1365 240.158 70.4177C240.877 69.6988 242.137 68.7999 242.407 69.0695C242.677 69.339 242.587 69.2492 243.037 69.2492C243.486 69.2492 244.296 69.609 244.926 69.6988C245.556 69.7887 246.816 71.3166 247.085 72.1257C247.355 72.9348 247.175 72.7547 248.165 73.9236C249.155 75.0917 250.054 74.3725 250.054 75.8109C250.054 77.2494 250.054 77.1591 250.504 77.6987C250.954 78.2382 251.494 76.7099 252.033 76.89C252.573 77.0701 252.663 76.7103 253.112 78.1483C253.562 79.5868 253.832 79.5868 253.923 81.0249C254.012 82.4629 253.832 81.1147 253.832 82.2828C253.832 83.4517 253.742 83.5416 253.923 84.6198C254.102 85.6993 254.731 86.0587 254.642 86.2384C254.642 86.2384 255.182 84.7105 255.001 83.6314C254.822 82.5532 255.001 81.0253 255.451 80.576C255.901 80.1259 256.352 79.677 256.711 80.8456C257.071 82.0137 257.251 81.1151 258.06 82.4633C258.87 83.8119 259.59 83.5416 259.68 84.171C259.77 84.8003 260.221 84.8906 260.849 85.4293C261.479 85.9688 262.019 85.3399 262.739 84.8003C263.459 84.2608 265.438 82.2832 265.528 81.4741C265.618 80.6654 266.428 80.8448 264.988 78.7781C263.548 76.7107 263.548 75.9914 262.019 74.7331C260.491 73.4747 259.59 73.3849 260.76 71.7667C261.93 70.1485 262.47 69.0703 263.189 69.5199C263.909 69.9692 265.168 69.8789 265.168 71.6772C265.168 73.4747 264.808 75.4523 266.068 73.295C267.327 71.1377 267.957 69.8793 267.597 70.2396C267.237 70.599 268.407 69.5203 268.407 69.5203C268.407 69.5203 268.497 68.7112 270.027 68.3518C271.555 67.9916 272.005 67.8123 272.545 67.5427C273.085 67.2728 274.615 65.4749 274.885 64.6662C275.154 63.8571 275.874 62.4191 275.694 61.7901C275.514 61.1603 274.614 58.1048 274.434 58.1943C274.255 58.2846 274.345 58.2846 273.176 57.0262C272.005 55.7678 271.196 54.8689 271.016 54.3294C270.836 53.7899 270.386 53.7 270.926 52.9812C271.466 52.2623 271.736 52.3522 271.826 51.7228C271.916 51.0938 272.635 50.5543 271.286 51.004C269.937 51.4532 270.926 51.1841 269.756 51.0942C268.587 51.004 265.528 51.7232 267.058 49.8359C268.587 47.9481 269.036 46.78 269.306 46.78C269.577 46.78 270.926 45.2517 271.016 46.6898C271.106 48.1278 271.645 47.768 271.736 48.667C271.826 49.5659 273.625 47.6786 273.625 47.6786C273.625 47.6786 274.255 47.8583 274.704 48.3075C275.154 48.7568 275.154 50.1953 275.154 50.1953C275.154 50.1953 274.795 49.7456 275.784 50.4648C276.774 51.1845 277.853 50.8243 277.853 52.3526C277.853 53.8805 277.853 53.9708 278.483 54.3302C279.113 54.6896 279.742 54.5103 280.283 54.0606C280.822 53.6113 281.722 51.9932 281.722 51.9932C281.722 51.9932 281.812 51.3638 280.372 50.4648C278.933 49.5663 278.033 48.9373 277.494 48.4877C276.954 48.0384 277.134 46.6902 277.673 46.1502C278.214 45.6107 278.483 45.3412 278.303 44.6223C278.123 43.9027 278.573 43.3636 279.923 43.4534C281.272 43.5437 281.542 43.364 281.542 43.364C281.542 43.364 281.813 43.5433 281.813 43.0042C281.813 42.465 283.521 39.9479 283.071 39.9479C282.622 39.9479 283.162 39.3189 282.891 38.3301C282.622 37.3409 283.791 35.8134 282.802 35.0942C281.812 34.375 281.542 34.0151 280.912 32.9369C280.283 31.8578 280.372 31.6785 278.033 31.4086C275.694 31.139 274.615 31.9481 274.075 31.2293C273.535 30.51 273.265 32.3075 272.906 30.1502C272.546 27.9929 273.446 26.5544 273.446 26.5544C273.446 26.5544 274.885 25.6559 275.244 25.0265C275.604 24.3971 277.043 24.1276 278.214 24.5772C279.384 25.0265 281.092 24.9367 282.532 25.207C283.972 25.4762 283.882 26.3751 284.602 25.207C285.321 24.0377 284.602 23.499 285.141 22.8696C285.682 22.2402 286.311 21.2514 286.76 21.8804C287.21 22.5102 288.111 23.1388 288.831 22.3297C289.55 21.521 289.82 21.4312 289.82 21.4312L290.179 21.791C290.179 21.791 290.989 21.3409 290.989 22.1496C290.989 22.9591 291.799 23.858 291.349 24.487C290.899 25.1168 290.27 25.0265 290.27 26.5544C290.27 28.0832 290.27 27.8132 291.259 29.072C292.249 30.3299 292.878 29.2513 293.058 30.5999C293.238 31.9481 293.417 31.6789 294.408 32.5775C295.398 33.476 295.217 33.476 295.937 34.0155C296.657 34.5551 297.017 35.0946 297.017 34.1956C297.017 33.2967 297.107 32.8474 297.017 32.0383C296.926 31.2297 297.737 30.5999 297.196 29.2517C296.657 27.9035 297.107 27.9933 296.027 27.0045C294.947 26.0161 294.227 27.1846 293.868 25.7461C293.508 24.3081 295.577 23.6787 296.117 23.499C296.657 23.3197 297.466 22.2406 297.646 22.9599C297.826 23.6787 296.297 26.2857 298.906 23.499C301.515 20.7127 300.345 21.8812 300.345 21.8812C300.345 21.8812 301.695 21.7015 301.965 21.8812C302.234 22.0613 302.955 21.0721 302.684 21.1624C302.414 21.2526 299.806 19.7239 299.806 19.7239L297.916 18.6457C297.916 18.6457 298.546 18.196 298.996 18.2863C299.446 18.3761 299.536 17.3873 299.987 17.2971C300.436 17.2072 303.495 17.9268 304.125 18.2863C304.755 18.6457 307.003 18.7355 306.733 18.5558C306.463 18.3757 305.024 17.2975 304.934 16.9376C304.844 16.5782 301.695 15.859 300.706 15.9488C299.716 16.0383 298.817 16.3079 298.007 16.0383C297.197 15.7687 296.028 15.0495 295.398 15.0495C294.768 15.0495 286.852 13.5216 286.492 13.6114C286.132 13.7013 285.592 15.4089 285.322 15.1394C285.052 14.8698 284.602 14.8694 283.342 14.51C282.084 14.1506 280.374 13.8806 278.124 13.7013C275.875 13.5216 274.347 13.881 273.717 13.1618C273.087 12.4429 271.738 12.7125 270.208 12.6222C268.679 12.5328 266.879 12.6222 266.07 12.6222C265.26 12.6222 263.371 12.5328 262.921 12.4425C262.471 12.3523 261.931 11.7233 261.392 11.6338C260.851 11.5436 260.941 11.3643 259.862 11.1846C258.783 11.0045 258.872 9.83636 258.513 10.8248C258.153 11.814 258.333 11.544 257.793 11.9034C257.253 12.2632 256.713 12.9821 256.353 12.9821C255.994 12.9821 254.555 13.0719 254.284 12.8922C254.014 12.7125 253.564 12.5328 252.664 12.5328C251.765 12.5328 251.765 12.6222 250.595 12.4425C249.426 12.2628 248.526 12.3523 247.446 11.8136C246.367 11.274 246.367 10.9146 245.467 11.0045C244.568 11.0947 244.568 10.8248 243.308 10.8248C242.049 10.8248 240.519 11.544 239.709 11.6338C238.9 11.7237 237.101 11.5436 236.471 11.274C235.841 11.0045 235.661 10.3755 233.322 10.6447C230.983 10.9146 229.633 10.9146 230.083 10.1954C230.533 9.47655 231.073 8.75731 231.342 8.66746C231.613 8.5776 232.242 8.12833 231.792 7.94862C231.342 7.76852 230.892 7.49935 229.813 7.4091C228.733 7.31925 228.823 7.76852 227.204 7.58881C225.585 7.4091 228.104 6.95983 224.775 7.04968C221.447 7.13994 220.637 7.4091 220.277 7.4091C219.917 7.4091 219.467 6.69027 218.567 7.76852C217.668 8.84717 216.408 9.47615 214.609 9.566C212.81 9.65625 212.719 9.38629 211.011 10.0153C209.301 10.6443 208.221 9.83556 208.581 11.2736C208.941 12.7117 209.391 13.2512 209.391 13.5208C209.391 13.7903 208.581 15.5882 207.592 14.5096C206.602 13.4309 204.803 9.20618 205.612 12.0827C206.422 14.9589 208.221 15.948 206.512 16.3973C204.803 16.8466 204.982 16.2176 204.712 16.0375C204.443 15.8578 204.712 14.5994 204.622 13.8802C204.532 13.1614 204.353 12.7117 203.993 12.3523C203.633 11.9925 203.723 11.4533 203.003 11.2736C202.283 11.0939 202.913 10.7341 201.744 10.7341C200.574 10.7341 199.585 10.0149 199.855 11.633C200.124 13.2508 200.394 12.1726 201.113 13.7005C201.833 15.2284 203.183 14.1498 202.193 15.2284C201.204 16.3071 198.595 15.9476 197.965 15.4984C197.335 15.0487 197.515 15.6781 196.345 14.869C195.175 14.0599 195.536 13.4305 194.187 14.0599C192.837 14.6893 192.387 15.8578 191.847 15.4081C191.307 14.9585 190.048 16.0371 189.598 15.4984C189.148 14.9589 187.348 14.9589 186.989 15.4984C186.629 16.0375 185.549 15.9476 184.02 16.6669C182.491 17.3857 182.94 16.7563 181.051 18.2847C179.161 19.8126 178.082 21.0709 177.453 20.0821C176.823 19.0937 173.404 17.3857 174.754 17.1158C176.103 16.8462 176.733 16.3071 177.453 16.936C178.173 17.565 179.342 17.3857 179.522 16.936C179.701 16.4864 180.512 16.0371 179.432 15.498C178.352 14.9585 178.262 15.3179 176.553 14.6889C174.843 14.0595 176.553 14.2396 174.214 13.8798C171.874 13.5204 170.884 13.3407 170.255 13.161C169.626 12.9813 168.726 13.161 167.826 13.0711C166.926 12.9813 166.297 12.8016 165.487 12.8914C164.677 12.9813 164.228 12.8016 163.148 13.6106C162.068 14.4197 161.258 14.7791 160.539 15.4081C159.819 16.0371 157.93 17.2959 157.39 17.7455C156.85 18.1948 154.961 19.6329 154.781 20.1724C154.601 20.7119 154.961 21.1612 154.241 21.5206C153.521 21.88 152.802 21.88 152.262 21.9699C151.722 22.0597 152.262 21.1608 151.722 22.0597C151.182 22.9587 151.362 26.1946 151.811 25.745C152.261 25.2953 151.991 23.8576 153.971 25.2062C155.95 26.554 157.21 26.3743 157.12 27.6327C157.03 28.891 158.469 28.8012 158.649 29.0712C158.829 29.3403 159.728 28.7113 159.728 28.7113C159.728 28.7113 161.708 27.453 161.708 26.824C161.708 26.1946 162.967 24.7566 162.967 24.7566C162.967 24.7566 162.067 24.3073 162.067 23.4083C162.067 22.5098 162.338 22.2394 162.517 21.3405C162.697 20.442 161.527 21.3409 164.227 19.6325C166.925 17.9248 167.105 19.0937 167.105 19.0937C167.105 19.0937 167.465 19.4532 167.015 19.9923C166.565 20.5318 165.755 21.9703 165.576 22.1496C165.395 22.3297 166.385 23.7678 166.835 23.7678C167.285 23.7678 168.184 23.4079 168.724 23.4978C169.264 23.5881 170.164 23.2286 170.434 23.4083C170.704 23.588 171.333 24.1272 170.883 24.5768C170.434 25.0261 169.443 25.5652 168.724 25.3859C168.004 25.2066 166.925 23.9475 167.555 25.7453C168.184 27.5432 167.465 27.9925 166.925 27.9027C166.385 27.8128 165.215 26.9143 165.395 28.2625C165.576 29.6103 164.226 30.5092 163.956 30.5092C163.686 30.5092 163.147 30.4194 163.147 30.4194C163.147 30.4194 162.336 30.3291 161.887 30.3291C161.437 30.3291 160.537 30.7784 160.268 31.1382C159.997 31.4976 159.638 31.2285 159.188 31.2285C158.738 31.2285 159.188 30.6889 158.288 30.5092C157.389 30.3295 156.849 30.1498 156.309 30.5092C155.769 30.8686 154.96 31.0483 154.6 30.7788C154.24 30.5092 154.78 29.8794 154.06 30.2397C153.34 30.5991 152.8 31.5879 152.531 31.6781C152.261 31.7676 153.34 31.6781 152.261 31.7676C151.181 31.8578 150.731 32.1278 150.192 32.3071C149.652 32.4872 150.371 33.5655 149.382 33.9249C148.392 34.2843 149.112 33.4756 148.122 34.2843C147.133 35.0938 146.952 35.8126 146.593 35.9025C146.233 35.9927 146.323 36.172 145.513 36.2619C144.704 36.3517 144.794 36.4416 144.343 36.5315C143.894 36.6213 144.434 36.8014 143.444 36.6213C142.454 36.4416 141.735 36.8014 141.914 37.1608C142.094 37.5202 145.423 38.509 142.904 38.4192C140.385 38.3293 141.195 38.7786 141.735 39.138C142.275 39.4974 142.544 39.8569 142.814 39.9471C143.084 40.037 143.534 41.116 143.534 41.116C143.534 41.116 144.254 41.0258 143.804 41.6551C143.354 42.2845 143.984 42.4642 143.534 43.2733C143.084 44.0824 143.084 43.5429 142.724 43.7226C142.365 43.9019 141.825 44.5317 140.835 43.9921C139.845 43.4526 139.126 43.1831 137.956 43.0936C136.786 43.0033 137.596 42.824 136.786 43.4526C135.977 44.0824 135.797 44.8012 135.887 45.6099C135.977 46.4186 136.067 47.4977 135.797 48.0372C135.527 48.5763 135.527 49.1158 135.706 49.9249C135.887 50.7336 136.427 51.0938 136.427 51.0938C136.427 51.0938 137.686 51.2731 137.956 51.3634C138.226 51.4532 138.766 51.1837 139.485 51.6325C140.205 52.0822 140.925 52.2623 141.374 51.7228C141.824 51.1837 143.624 50.5543 144.164 50.0152C144.704 49.4757 145.063 49.2963 144.794 48.7568C144.524 48.2173 145.334 46.8691 145.783 46.5995C146.233 46.33 147.223 46.06 147.223 46.06L148.302 44.4422C148.302 44.4422 149.202 43.453 149.652 43.5433C150.101 43.6331 152.62 44.5325 152.441 43.364C152.261 42.1951 152.62 41.8356 152.89 42.2849C153.16 42.7342 153.88 42.5545 153.88 42.5545C153.88 42.5545 154.24 42.3752 154.509 42.6447C154.779 42.9139 155.139 44.0832 155.679 44.3524C156.219 44.6223 156.669 44.8919 157.029 45.0712C157.389 45.2513 157.749 45.0712 158.468 45.7006C159.188 46.33 159.908 46.6898 159.997 46.9589C160.088 47.2285 160.718 47.8579 160.718 47.8579C160.718 47.8579 161.347 48.0376 161.167 48.3974C160.987 48.7568 160.088 49.8359 159.638 50.0152C159.188 50.1949 158.019 49.8351 158.468 50.1949C158.918 50.5543 159.548 51.004 159.818 50.734C160.088 50.4644 161.797 48.6666 161.797 48.6666C161.797 48.6666 161.707 48.7564 161.797 48.2169C161.887 47.6782 161.797 47.0488 162.247 47.3184C162.697 47.5883 162.967 47.9477 163.147 47.5883C163.326 47.2285 163.506 47.4086 163.056 47.139C162.606 46.8691 161.527 45.3412 160.987 45.2513C160.447 45.161 159.097 44.2621 159.097 44.2621C159.097 44.2621 158.828 43.9925 158.198 43.2737C157.568 42.5545 157.389 42.7342 157.208 42.1048C157.028 41.4758 156.488 40.6667 157.478 40.8465C158.468 41.0262 159.097 41.6551 159.997 42.1947C160.897 42.7342 160.717 42.9135 161.527 43.453C162.336 43.9925 162.427 44.5321 163.056 44.4422C163.685 44.3524 164.406 44.8016 164.406 45.6107C164.406 46.4198 164.585 47.3183 164.765 47.4985C164.945 47.6786 165.484 48.038 165.665 48.3974C165.845 48.7568 166.205 49.6558 166.474 50.0152C166.744 50.3746 167.014 50.6446 167.284 51.0942C167.554 51.5435 167.644 51.004 167.913 51.1841C168.184 51.3638 168.543 51.2735 168.543 50.9141C168.543 50.5547 168.633 49.9253 168.633 49.9253C168.633 49.9253 169.893 49.5659 169.533 49.3858C169.173 49.2061 168.093 48.1274 168.184 47.768C168.274 47.4086 168.184 46.6898 168.633 46.7796C169.083 46.8691 169.533 47.6782 170.523 46.9589C171.512 46.2397 172.682 45.8803 172.322 46.9589C171.962 48.0376 172.412 48.2169 172.322 49.3858C172.232 50.5547 172.682 50.1949 173.312 50.8243C173.942 51.4536 174.391 51.5439 174.841 51.7232C175.291 51.9033 176.011 51.8135 176.731 51.9033C177.451 51.9932 177.9 51.6334 178.53 51.8135C179.159 51.9932 180.599 51.7232 180.869 51.9033C181.14 52.083 182.219 51.5439 182.309 52.1729C182.399 52.8023 182.759 52.083 182.489 53.5211C182.219 54.9592 181.859 55.9479 181.859 55.9479C180.869 57.8357 180.51 58.2854 180.06 58.3752C179.61 58.4651 179.34 58.7346 178.531 58.6448C177.721 58.5545 176.731 58.6448 175.562 58.3752C174.392 58.1052 172.233 58.6448 171.333 58.1053C170.434 57.5661 169.174 58.0154 168.634 57.3864C168.094 56.757 167.195 56.8469 166.835 56.4875C166.475 56.1281 166.295 55.1397 166.295 56.5777C166.295 58.0162 165.485 58.1057 165.305 58.8249C165.125 59.5437 165.575 59.1843 164.585 59.0944C163.595 59.0042 163.326 59.5437 161.886 58.4655C160.447 57.3868 159.727 57.3868 159.008 56.9371C158.287 56.4875 157.568 57.7458 156.849 56.3082C156.129 54.8697 155.139 56.0382 155.049 54.8697C154.959 53.7008 155.049 53.7915 155.139 53.0722C155.23 52.353 156.219 51.724 155.769 51.4544C155.319 51.1849 155.679 50.7352 155.049 51.0052C154.419 51.2747 153.52 51.3646 152.8 51.6342C152.08 51.9041 154.419 51.6341 150.911 51.9041C147.402 52.1737 146.412 52.5331 146.412 52.5331C146.412 52.5331 146.142 52.3534 145.692 52.7128C145.242 53.0722 144.612 53.6117 143.983 53.3422C143.353 53.0722 142.993 53.1621 142.454 53.2523C141.914 53.3422 141.554 52.8031 140.924 53.2523C140.295 53.7012 139.575 53.8813 139.305 53.7012C139.025 53.5175 138.573 52.7987 138.573 52.7987L138.584 52.8003Z" fill="#246234"/>
<path d="M198.771 111.944C198.501 112.934 197.512 114.371 197.512 114.371L195.712 115.27C195.712 115.27 195.083 115.81 194.722 115.9C194.363 115.989 193.463 116.439 193.463 116.439C193.463 116.439 192.654 116.259 192.923 117.068C193.193 117.877 193.283 118.866 193.193 119.135C193.103 119.405 193.103 119.945 193.103 120.664C193.103 121.383 192.833 122.281 192.383 122.461C191.934 122.641 191.484 122.821 191.574 123.45C191.664 124.079 191.664 125.967 191.664 125.967L192.834 127.765C192.834 127.765 193.194 127.495 193.913 127.495C194.632 127.495 195.353 126.867 195.353 126.867C195.353 126.867 196.163 127.045 196.072 126.057C195.982 125.068 196.433 123.9 196.342 123.63C196.252 123.361 197.152 122.192 197.152 121.923C197.152 121.653 198.052 120.395 198.052 119.945C198.052 119.496 198.681 118.776 198.771 118.238C198.861 117.698 198.951 116.44 199.131 116.08C199.311 115.721 199.401 115.361 199.401 115.002C199.401 114.642 199.401 113.923 199.401 113.923L198.762 111.942L198.771 111.944Z" fill="#246234"/>
<path d="M269.214 124.081C268.945 124.44 268.765 128.305 268.585 128.755C268.405 129.204 268.045 131.541 268.226 132.08C268.405 132.62 268.675 134.597 268.495 135.227C268.315 135.856 268.585 137.833 268.135 137.743C267.686 137.653 267.506 137.834 267.506 138.103C267.506 138.373 268.135 138.911 268.135 138.911C268.135 138.911 269.215 138.912 269.665 138.822C270.115 138.732 271.014 138.282 271.734 138.282C272.454 138.282 272.904 137.742 273.533 137.742C274.163 137.742 275.513 137.294 275.873 137.473C276.232 137.652 276.772 136.394 277.402 136.664C278.032 136.934 279.382 136.035 280.011 136.035C280.64 136.035 280.911 135.046 281.631 135.226C282.35 135.406 283.7 134.867 284.33 135.135C284.959 135.406 285.949 134.237 286.399 135.135C286.849 136.035 288.199 136.394 288.199 136.844C288.199 137.293 288.107 138.282 288.107 138.282L289.187 138.192C289.187 138.192 290.896 137.113 291.167 137.113C291.437 137.113 292.067 136.215 292.067 136.664C292.067 137.113 291.526 138.103 291.347 138.552C291.167 139.001 291.526 139.541 291.526 139.541C291.526 139.541 292.427 139.99 292.067 140.799C291.706 141.608 292.156 141.428 292.067 142.057C291.976 142.686 292.067 142.416 292.425 142.776C292.786 143.136 293.416 143.766 293.956 143.675C294.496 143.585 294.675 143.046 295.125 143.316C295.575 143.585 296.474 143.406 296.744 143.765C297.015 144.125 295.035 145.023 298.454 143.496C301.872 141.967 302.231 141.608 302.681 141.068C303.133 140.529 303.672 139.99 304.031 139.63C304.391 139.271 304.122 139.361 305.201 138.552C306.28 137.743 306.28 138.102 307.271 136.574C308.26 135.046 308.979 134.507 309.16 134.237C309.34 133.967 309.7 133.878 309.79 132.798C309.88 131.72 310.599 130.731 310.599 130.372C310.599 130.013 310.869 129.473 310.779 128.844C310.689 128.214 311.139 127.316 310.599 126.417C310.059 125.518 310.869 125.159 310.059 124.799C309.249 124.439 308.71 124.619 308.53 123.99C308.35 123.361 307.63 123.45 307.36 121.743C307.09 120.035 306.01 119.855 306.01 119.855C306.01 119.855 304.931 119.405 305.201 119.226C305.471 119.046 305.561 117.787 305.471 117.428C305.381 117.068 305.381 116.259 305.112 115.721C304.842 115.181 304.661 114.462 304.392 113.832C304.122 113.203 303.672 113.023 303.492 112.305C303.312 111.586 303.042 111.315 302.952 111.136C302.862 110.956 302.681 110.058 302.502 111.046C302.322 112.035 301.962 113.922 301.962 113.922C301.962 113.922 301.242 115.451 300.972 115.9C300.702 116.349 300.433 117.518 299.983 117.427C299.533 117.338 299.262 117.877 298.903 117.787C298.543 117.697 298.004 117.877 297.734 117.608C297.464 117.338 296.744 116.619 296.384 116.528C296.024 116.439 295.755 115.72 295.484 115.72C295.214 115.72 294.765 115.09 294.855 114.731C294.944 114.372 295.034 113.563 295.125 113.203C295.214 112.844 295.755 112.034 295.755 112.034C295.755 112.034 295.755 111.495 295.305 111.495C294.855 111.495 294.764 111.495 293.775 111.405C292.786 111.315 292.516 111.225 292.155 111.225C291.796 111.225 292.516 111.045 291.526 111.315C290.536 111.585 290.086 112.304 289.456 112.934C288.828 113.562 289.367 113.382 288.828 113.562C288.287 113.743 288.378 113.113 288.018 114.102C287.657 115.091 288.198 115.36 287.927 115.54C287.657 115.72 285.768 114.911 285.768 114.911C285.768 114.911 286.218 114.821 285.858 114.372C285.499 113.922 285.139 113.293 284.599 113.563C284.059 113.832 283.608 114.013 283.25 114.462C282.889 114.911 282.889 115.271 282.62 115.63C282.35 115.989 281.63 115.989 281.54 116.349C281.45 116.709 281.45 117.608 281.181 117.697C280.911 117.788 280.821 117.339 280.551 117.249C280.281 117.159 280.371 116.439 280.191 116.889C280.012 117.338 279.832 117.248 279.562 117.967C279.291 118.687 279.202 119.316 278.932 119.406C278.662 119.496 278.932 119.586 278.122 120.035C277.313 120.484 277.132 120.484 275.963 121.024C274.794 121.564 275.064 121.564 274.254 121.653C273.445 121.743 273.264 122.013 272.725 122.103C272.184 122.192 271.825 122.282 271.285 122.821C270.745 123.361 270.296 123.54 269.936 123.631C269.576 123.721 269.232 124.074 269.232 124.074L269.214 124.081Z" fill="#246234"/>
<path d="M274.522 88.5743C274.163 89.1142 272.994 90.7315 272.544 90.8218C272.094 90.9113 271.644 91.3613 271.284 91.2711C270.924 91.1808 270.115 91.2711 269.845 92.4396C269.575 93.6081 269.125 94.2375 268.854 94.1472C268.584 94.0574 269.304 95.8548 267.775 95.1364C266.246 94.4172 266.786 95.7658 266.606 96.1256C266.426 96.4846 266.875 97.4738 266.965 97.8332C267.056 98.1926 267.325 98.822 267.685 99.3608C268.045 99.9003 268.315 100.529 268.945 100.35C269.575 100.17 271.553 100.35 271.553 100.35C271.553 100.35 272.274 100.62 272.723 100.62C273.173 100.62 273.263 100.44 273.532 100.44C273.802 100.44 274.342 99.5409 274.252 99.4514C274.162 99.3608 273.893 99.0916 274.432 98.5521C274.972 98.0125 275.602 97.8332 275.692 97.2038C275.782 96.5749 275.512 96.5749 275.782 96.2147C276.052 95.8552 276.681 95.9459 276.502 95.5857C276.321 95.2263 276.681 95.3161 276.321 94.5965C275.962 93.8776 275.512 93.6077 275.871 92.7087C276.232 91.8102 276.592 91.6301 276.502 91.091C276.411 90.551 276.951 90.3717 276.321 89.7424C275.692 89.1138 275.422 88.9337 274.972 88.7532L274.528 88.5695L274.522 88.5743Z" fill="#246234"/>
<path d="M292.157 97.5636C292.518 97.4738 293.777 96.5748 293.867 98.193C293.957 99.8108 294.046 99.3611 294.587 100.26C295.126 101.159 295.485 101.429 296.115 100.98C296.745 100.53 297.465 100.53 297.645 99.7213C297.825 98.9122 297.825 98.9122 298.364 98.9122C298.905 98.9122 299.084 98.8224 299.355 99.1826C299.625 99.5412 299.804 99.1818 300.974 99.8112C302.144 100.441 303.133 100.26 303.854 100.89C304.573 101.519 304.933 101.43 305.922 101.789C306.912 102.148 306.462 101.609 307.362 102.598C308.262 103.586 307.903 103.856 308.351 104.305C308.801 104.755 309.162 103.946 308.981 105.024C308.801 106.103 307.542 105.024 309.431 106.552C311.32 108.081 311.591 108.351 312.22 108.799C312.85 109.249 313.3 109.789 312.76 109.789C312.22 109.789 310.511 109.789 310.331 109.519C310.151 109.249 309.342 109.069 308.801 108.44C308.262 107.811 307.093 107.361 306.823 106.822C306.553 106.282 306.193 106.103 305.743 106.103C305.294 106.103 304.844 106.642 304.214 107.271C303.584 107.9 303.855 106.912 303.044 107.182C302.234 107.452 301.335 107.091 300.885 106.732C300.435 106.373 300.526 105.833 299.806 106.103C299.086 106.373 298.637 106.193 298.906 105.654C299.176 105.114 298.996 104.395 298.996 104.395C298.996 104.395 299.267 103.496 298.637 103.317C298.007 103.137 298.007 102.508 297.377 102.328C296.747 102.148 295.758 101.699 295.758 101.699C295.758 101.699 295.668 101.699 295.398 101.609C295.128 101.518 295.128 101.518 294.408 101.339C293.689 101.159 293.148 101.338 292.789 100.889C292.428 100.44 292.609 99.8108 292.609 99.8108C292.609 99.8108 294.048 99.9905 292.609 98.9118L291.169 97.8336C291.169 97.8336 291.348 97.7433 291.259 97.5636C291.167 97.3799 292.158 97.5596 292.158 97.5596L292.157 97.5636Z" fill="#246234"/>
<path d="M251.671 90.0998C251.671 90.0998 252.121 90.5498 252.841 90.4596C253.56 90.3693 254.1 91.8976 254.55 92.4368C255 92.9763 255.27 93.2459 256.26 93.8752C257.249 94.5042 257.159 93.3357 258.509 95.2234C259.858 97.1108 259.228 95.9427 259.858 97.1108C260.488 98.2805 260.848 98.9091 261.207 99.1794C261.567 99.449 261.837 100.167 261.928 100.437C262.017 100.707 262.647 101.516 262.647 101.786C262.647 102.055 262.827 102.774 262.287 103.403C261.747 104.033 261.297 104.123 261.297 104.123C261.297 104.123 260.218 103.583 259.858 103.044C259.498 102.505 259.049 102.055 258.418 100.977C257.789 99.8979 257.069 98.7294 256.709 98.1902C256.35 97.6503 255.81 97.1108 255.54 96.5721C255.27 96.0321 254.55 94.4148 254.19 94.2347C253.831 94.0545 253.74 93.5158 253.11 92.8864C252.481 92.2571 252.571 91.7179 252.301 91.3585C252.031 90.9991 251.402 90.1892 251.402 90.1892L251.665 90.1014L251.671 90.0998Z" fill="#246234"/>
<path d="M76.6907 160.214C76.0608 159.855 74.7114 159.225 74.2618 158.866C73.8121 158.506 72.4627 156.528 72.4627 156.528L71.4726 154.64C71.4726 154.64 70.3035 153.202 70.5733 152.663C70.8431 152.124 71.3831 151.764 71.3831 151.495C71.3831 151.225 71.9227 150.505 71.4726 150.236C71.023 149.966 71.023 149.877 70.7528 149.068C70.483 148.259 70.483 147.539 70.1233 147.36C69.7631 147.18 69.4933 146.011 69.1336 145.922C68.7739 145.831 68.4137 145.202 68.4137 145.202L67.8737 137.921C67.8737 137.921 67.6935 134.596 67.514 133.876C67.3337 133.158 67.7838 131.63 67.3337 130.281C66.8841 128.933 67.4241 127.315 67.1539 126.775C66.8841 126.236 67.3337 124.708 67.0639 123.27C66.7941 121.832 68.1435 120.034 67.0639 119.495C65.9844 118.955 66.7941 118.147 65.8944 118.147C64.9951 118.147 64.3652 117.697 63.5554 117.068C62.7456 116.439 61.2159 115.27 60.7663 114.82C60.3166 114.372 58.8769 113.203 58.4272 112.843C57.9775 112.484 57.5275 110.956 57.1678 110.506C56.808 110.057 56.6282 108.709 56.0882 107.9C55.5482 107.091 54.8287 105.743 54.6484 105.473C54.4686 105.203 52.4893 102.866 52.4893 102.866L52.6691 101.428C52.6691 101.428 54.0185 100.619 53.8387 100.35C53.6588 100.08 53.929 99.8096 53.2986 99.2709C52.6687 98.731 52.7587 97.7422 53.2986 97.2933C53.8386 96.8432 54.648 95.4052 54.648 95.4052L55.9974 93.1584C55.9974 93.1584 57.0774 91.9891 57.0774 91.1804C57.0774 90.3717 58.6067 89.8326 57.707 89.1134C56.8072 88.3937 57.2573 87.7648 56.9871 87.2252C56.7169 86.6861 56.8972 86.3267 57.707 85.7872C58.5167 85.2477 59.9561 83.2705 59.9561 83.2705C59.9561 83.2705 61.0357 83.0005 61.3055 83.0005C61.5753 83.0005 62.0253 80.1236 62.8351 82.0113C63.6449 83.899 63.9147 82.9102 63.6449 84.2585C63.3747 85.6067 64.0046 85.3375 64.3644 84.9781C64.7241 84.6179 64.1841 85.2476 64.904 83.6291C65.6234 82.0113 65.354 81.4722 65.8037 81.9218C66.2534 82.3715 66.4332 82.4614 67.243 82.7309C68.0524 83.0005 68.3226 82.9102 68.592 83.4498C68.8618 83.9893 68.7723 83.2701 70.3015 83.54C71.8308 83.81 73.99 83.0005 73.7202 83.899C73.4504 84.798 72.9104 83.8092 74.1698 84.798C75.4293 85.7872 75.6095 85.9665 76.329 86.1466C77.0485 86.3263 77.6784 86.2364 78.7584 87.3151C79.838 88.3934 80.1078 88.4836 80.3776 89.0223C80.6474 89.5623 81.097 89.2024 81.5471 89.7416C81.9968 90.2815 82.6267 90.2815 83.2562 90.2815C83.8857 90.2815 83.2562 89.7416 84.2459 90.4612C85.2359 91.18 85.9554 91.2695 86.4051 92.7079C86.8547 94.1472 87.7544 94.0566 87.0346 95.495C86.3151 96.9335 84.8758 97.5625 85.5053 97.4726C86.1349 97.3824 87.3048 96.8428 87.6645 96.9331C88.0242 97.0225 88.2041 96.6635 88.7441 96.9331C89.2841 97.2027 89.374 96.5737 89.2841 97.2027C89.1938 97.832 89.1938 97.2027 89.1938 97.832C89.1938 98.461 89.0139 97.2027 90.0935 97.4726C91.1731 97.7422 90.5432 96.9327 91.8026 98.1016C93.0625 99.2705 93.0625 98.9111 93.5117 99.5401C93.9618 100.169 94.4115 99.181 94.6817 99.4502C94.9519 99.7194 95.7613 99.5397 96.571 99.7198C97.3808 99.8991 96.8408 99.1806 98.1007 99.9893C99.3598 100.798 100.62 100.528 100.889 101.248C101.159 101.967 101.879 101.697 102.239 102.147C102.598 102.596 102.778 101.967 103.139 102.596C103.498 103.225 104.578 103.045 104.398 103.674C104.218 104.304 104.667 103.944 104.488 104.843C104.308 105.742 103.678 107.18 103.139 107.539C102.599 107.899 102.599 108.349 102.239 108.798C101.879 109.248 101.969 108.349 101.519 109.607C101.069 110.866 101.159 111.045 100.799 112.213C100.44 113.382 100.71 112.213 100.44 113.382C100.17 114.551 100.35 115.27 100.08 116.618C99.8102 117.966 99.9002 117.967 99.7203 118.955C99.5404 119.944 100.17 118.506 99.3602 120.573C98.5508 122.641 98.4608 122.55 98.191 123.45C97.9208 124.349 98.281 123.629 97.2913 124.169C96.3017 124.709 96.8416 124.528 95.6717 124.888C94.5026 125.248 93.0629 125.608 92.6132 125.697C92.1635 125.787 90.3641 126.326 90.9041 127.404C91.4441 128.483 91.4441 128.663 90.9041 130.012C90.3641 131.36 89.5547 131.81 89.5547 132.438C89.5547 133.067 89.1946 133.696 89.105 134.146C89.0147 134.596 89.9144 133.696 88.8352 135.045C87.7556 136.393 87.6657 136.034 87.3056 136.843C86.9459 137.651 87.3056 137.022 86.9459 137.651C86.5861 138.28 85.6864 138.55 85.6864 138.55C85.6864 138.55 85.7759 139 85.4162 138.82C85.0561 138.641 85.1464 138.91 83.7966 138.55C82.4472 138.191 82.2674 137.292 82.0875 137.921C81.9076 138.55 82.1774 138.91 82.9872 139.539C83.7966 140.169 85.1464 140.348 84.7863 140.978C84.4265 141.607 84.4265 141.607 84.1567 141.966C83.8865 142.326 84.5165 142.056 83.8865 142.326C83.257 142.596 82.8969 143.765 82.6271 143.765C82.3573 143.765 82.177 144.214 81.8173 144.034C81.4576 143.854 80.5582 143.225 80.378 143.585C80.1981 143.944 79.838 143.135 79.9279 144.393C80.0182 145.652 80.1981 146.371 79.748 146.641C79.2984 146.91 78.2184 146.641 78.2184 146.641L78.0385 146.191L77.409 146.371C77.409 146.371 77.1392 147.45 77.5889 147.629C78.0385 147.809 77.9486 147.988 78.3983 148.528C78.8483 149.067 78.5785 150.056 78.5785 150.056C78.5785 150.056 78.5785 150.326 78.1289 150.775C77.6792 151.225 77.4989 151.584 77.409 151.854C77.3187 152.124 76.7791 153.292 77.5889 153.202C78.3983 153.112 79.0286 152.663 79.0286 154.101C79.0286 155.539 79.3883 155.18 78.9387 156.169C78.4886 157.157 78.1289 157.247 78.0389 158.146C77.9494 159.045 78.1293 159.135 78.3091 159.674C78.489 160.214 78.9391 159.944 78.489 160.214C78.0413 160.469 76.6943 160.202 76.6943 160.202L76.6907 160.214Z" fill="#246234"/>
<path d="M53.4801 87.0447L52.8506 86.1461C52.8506 86.1461 52.5808 85.6062 52.1307 85.5168C51.6807 85.4273 50.691 84.2584 50.691 84.2584C50.691 84.2584 50.2414 83.899 50.2414 83.27C50.2414 82.6406 49.8812 81.6522 50.151 80.5736C50.4212 79.4953 50.5112 78.1467 50.4212 77.7869C50.3309 77.4275 50.8709 77.3376 50.2414 76.9778C49.6114 76.6184 48.352 76.5285 47.5422 76.5285C46.7328 76.5285 45.7427 76.7985 45.5629 76.888C45.383 76.9778 46.5525 74.1915 46.7324 73.7423C46.9123 73.293 47.722 71.315 47.722 71.0458C47.722 70.7759 47.9918 70.686 47.4522 70.327C46.9127 69.9672 46.0129 69.7875 45.4729 70.057C44.9333 70.327 45.0233 69.6976 44.5736 70.7759C44.1239 71.8549 43.6739 73.0234 43.1339 73.2031C42.5943 73.3833 41.5147 73.9224 41.5147 73.9224C41.5147 73.9224 40.1653 73.8325 39.7152 73.7427C39.2656 73.6528 37.3762 72.664 37.0165 72.035C36.6567 71.4057 36.4769 70.0571 36.4769 69.4285C36.4769 68.7991 37.4661 66.9118 37.3762 66.4621C37.2863 66.0128 38.3663 64.2149 38.2759 63.945C38.1856 63.6754 38.4558 62.7765 38.7256 62.417C38.9954 62.0576 40.3452 61.608 40.7049 61.2485C41.0646 60.8887 41.6946 60.4399 42.3241 60.2597C42.9536 60.0796 43.494 59.9003 43.9437 59.9003C44.3933 59.9003 45.5629 58.9115 45.7427 59.9003C45.923 60.8887 46.7328 60.5293 47.1824 60.6192C47.6321 60.7094 47.7224 61.1587 48.4419 59.9902C49.1618 58.8213 49.8812 58.4619 49.8812 58.7314C49.8812 59.0014 51.0508 58.642 51.2306 58.9115C51.4105 59.1811 51.7706 58.7314 52.4001 59.2709C53.0301 59.8105 53.9294 59.9003 53.8395 60.1695C53.7495 60.439 54.1992 60.4391 54.1992 60.709C54.1992 60.9786 54.5593 60.0796 54.5593 61.6974C54.5593 63.3156 55.009 64.3044 55.009 64.3044C55.009 64.3044 55.6385 65.653 55.9083 65.383C56.1781 65.1135 56.7177 64.3946 56.7177 64.3946C56.7177 64.3946 57.6174 63.8551 56.9879 61.9674C56.358 60.08 56.808 59.5405 56.6282 58.9111C56.4479 58.2818 56.4479 57.9219 57.5275 57.1132C58.6071 56.3046 61.2159 54.5067 61.8459 54.1473C62.4754 53.7878 63.9147 52.799 63.9147 52.799C63.9147 52.799 64.4543 52.5295 64.5446 51.8103C64.6346 51.0914 66.3437 49.8327 66.434 49.4732C66.5244 49.1138 67.6939 48.2153 67.6939 48.2153C67.6939 48.2153 68.9529 47.4957 68.863 47.0468C68.7731 46.5975 70.4826 45.7888 70.7524 45.7888C71.0222 45.7888 72.4619 46.2377 72.4619 45.4286C72.4619 44.6199 72.4619 44.4398 73.3616 43.721C74.261 43.0021 75.4305 41.9231 75.8806 41.9231C76.3302 41.9231 77.8599 41.1148 78.4894 40.9347C79.1193 40.7546 81.0986 39.8556 79.2992 40.9347C77.4997 42.0129 78.6693 41.384 78.3095 42.2829C77.9502 43.1815 77.6796 44.3504 79.3891 43.0017C81.0987 41.6535 81.0083 41.3836 81.6382 41.2941C82.2682 41.2043 81.8181 41.5637 83.1675 41.114C84.5173 40.6647 84.6072 40.485 84.6072 40.485C84.6072 40.485 85.2372 39.9455 84.877 39.6763C84.5173 39.4064 85.2372 39.047 83.8874 39.5861C82.538 40.1256 82.6279 40.2155 81.7282 39.9455C80.8289 39.6759 79.4791 39.7654 80.4687 38.8665C81.4584 37.9679 82.7178 37.6979 81.908 37.3385C81.0987 36.9791 79.0294 37.4288 78.7596 37.5182C78.4894 37.6081 77.8599 37.4284 77.3199 37.5182C76.7803 37.6081 76.9602 36.7998 77.3199 36.6197C77.68 36.4396 78.8495 35.9001 80.2889 35.5407C81.7282 35.1812 85.2372 35.0914 86.0465 35.0914C86.8559 35.0914 87.9355 35.2715 88.5655 34.8218C89.195 34.3725 90.4548 33.6537 90.6347 33.2935C90.815 32.9341 91.5344 32.395 91.5344 32.395C91.5344 32.395 92.3438 31.5859 91.8942 31.2264C91.4445 30.867 90.9944 30.0579 90.6347 30.2377C90.275 30.4174 90.5452 31.4964 89.8253 30.3275C89.1055 29.1594 89.1954 28.9793 88.8357 28.7097C88.4759 28.4402 88.1158 28.6195 88.386 27.3615C88.6558 26.1032 88.5659 25.5636 88.5659 25.5636C88.5659 25.5636 88.8357 24.4854 88.5659 24.3955C88.2957 24.3053 88.1162 24.0361 87.6665 24.3053C87.2165 24.5748 84.6976 25.8336 84.158 26.1032C83.618 26.3727 82.8981 25.0245 83.1679 24.3955C83.4381 23.7658 83.2578 24.1256 82.8981 23.227C82.5384 22.3281 81.0991 22.148 80.5591 22.148C80.0191 22.148 78.76 21.3389 78.3999 21.8784C78.0401 22.4175 76.1512 24.1252 75.7906 24.3053C75.4309 24.4854 74.8913 22.7774 74.6215 25.5636C74.3513 28.3507 75.6112 29.1594 74.1718 29.3391C72.7325 29.5188 71.4727 30.3275 71.4727 30.3275C71.4727 30.3275 70.3035 30.4178 70.3035 31.1366C70.3035 31.8562 69.8539 33.5635 69.3135 33.7432C68.7739 33.9233 67.4241 33.6537 66.9744 33.1142C66.5248 32.5747 67.0644 30.5975 67.0644 30.5975L67.8742 29.7884C67.8742 29.7884 62.1165 28.8898 62.206 28.53C62.2963 28.1706 60.4969 27.5416 60.317 27.0021C60.1371 26.4626 60.0468 25.2941 60.2271 24.8448C60.4069 24.3955 62.8359 22.2382 64.0954 21.789C65.3548 21.3393 67.514 20.3509 68.144 20.1708C68.7739 19.9911 69.8531 20.0809 70.2132 19.6317C70.5729 19.182 70.6629 18.3733 70.6629 18.3733C70.6629 18.3733 70.483 17.1145 70.8427 17.2943C71.2025 17.4744 71.8324 17.7439 71.9223 18.0135C72.0127 18.283 72.0127 18.9124 72.6422 18.1928C73.2721 17.474 74.0819 17.204 74.8014 16.845C75.5212 16.4852 76.6004 16.5754 77.2307 16.216C77.8603 15.8566 78.9399 15.4968 79.0298 14.5978C79.1197 13.6993 78.76 13.9688 78.3099 13.8786C77.8603 13.7891 78.4898 13.9688 76.9605 14.6877C75.4309 15.4065 75.881 14.8674 74.8014 15.4065C73.7218 15.946 73.6314 16.0359 73.5419 15.5866C73.4516 15.137 73.7218 14.4181 73.7218 14.4181C73.7218 14.4181 73.8121 14.3279 73.1822 14.1486C72.5522 13.9688 72.5523 14.2384 72.4623 13.4297C72.3724 12.6206 72.912 11.4521 72.0127 11.8115C71.1129 12.171 70.3035 11.542 69.6736 13.3395C69.0437 15.137 66.8845 17.0251 66.3445 16.5754C65.8049 16.1261 65.715 16.0359 65.2649 16.0359C64.8148 16.0359 64.1853 15.4968 63.3755 15.4069C62.5657 15.3171 60.1363 15.3171 59.5072 15.4069C58.8773 15.4972 58.1578 15.0475 57.6174 15.587C57.0778 16.1261 56.2684 16.8454 56.2684 17.1153C56.2684 17.3849 55.4587 16.1261 55.1889 16.2164C54.9191 16.3063 54.1988 15.857 53.3898 15.857C52.58 15.857 52.04 15.4073 51.7706 15.4073C51.5008 15.4073 52.04 14.6881 51.7706 14.5982C51.5008 14.5088 45.6524 14.3287 45.6524 14.3287C45.6524 14.3287 43.7634 13.6098 43.0439 13.6997C42.3241 13.7895 40.3452 13.879 38.8151 14.149C37.2855 14.4185 35.0363 15.3175 34.3169 15.4073C33.597 15.4976 31.9778 15.4976 31.708 15.0479C31.4378 14.5986 31.798 14.6885 31.4378 14.5986C31.0781 14.5092 31.3483 14.3291 30.5385 13.7001C29.7287 13.0707 30.8986 12.5316 29.2791 12.5316C27.6599 12.5316 26.6702 12.4413 25.2309 12.5316C23.7912 12.6214 20.8226 13.3403 20.4629 13.2504C20.1031 13.1606 17.2241 13.7001 16.774 13.4305C16.3244 13.1606 14.0748 14.4189 13.6256 14.3291C13.1759 14.2392 11.4664 14.4193 11.0167 14.6889C10.5667 14.9588 8.40749 15.4976 9.12735 15.9472C9.84681 16.3965 9.75688 16.8458 9.84681 17.1157C9.93714 17.3853 9.12735 18.0143 9.12735 18.0143C9.12735 18.0143 8.94708 18.0143 7.95783 17.6549C6.96817 17.2951 5.88857 17.1157 5.43851 17.3853C4.98885 17.6549 4.17905 18.1948 4.35892 18.5542C4.53919 18.9136 5.79824 19.7227 5.97851 19.4528C6.15837 19.1832 6.60844 18.6441 7.14803 18.7339C7.68803 18.8242 8.49782 18.3745 7.77796 19.2734C7.0581 20.172 6.42817 20.6217 5.97851 20.7119C5.52884 20.8014 4.44925 20.8912 3.45959 20.9815C2.46953 21.0717 2.55947 20.6221 1.66014 21.521C0.760814 22.4195 0.400684 21.8804 0.220819 22.8692C0.0409535 23.8576 -0.138912 23.8576 0.220819 24.1276C0.580549 24.3971 -0.499042 24.487 0.310751 24.7565C1.12015 25.0265 2.1098 25.2961 2.01987 25.5652C1.92954 25.8352 2.9196 25.2062 2.3796 25.9247C1.83961 26.6443 1.48028 27.2729 2.55947 26.554C3.63906 25.8352 4.26859 26.3739 5.16831 25.9247C6.06804 25.4754 6.96777 25.3855 7.50736 25.0261C8.04736 24.6663 8.31716 24.1276 9.12695 23.8572C9.93674 23.5876 9.39675 23.9475 9.48668 24.3967C9.57661 24.846 9.48668 24.9359 10.0267 24.576C10.5663 24.2166 10.5663 24.4866 11.2861 24.0369C12.0056 23.5876 12.8154 23.138 13.3554 23.4075C13.895 23.6775 14.0748 23.6775 14.435 23.6775C14.7947 23.6775 13.9853 23.5872 14.7947 23.6775C15.6045 23.767 14.435 23.4075 17.1338 24.0369C19.8329 24.6659 20.5528 24.2166 20.7323 25.2054C20.9125 26.1942 21.2723 25.1152 21.7219 25.7445C22.1716 26.3735 22.4418 25.8348 22.7116 26.913C22.9814 27.9921 22.7116 30.9581 22.5317 31.3175C22.3518 31.6769 22.2619 31.6769 22.3518 32.486C22.4418 33.2947 23.5214 37.1604 23.1616 37.4296C22.8019 37.6987 21.9921 37.789 21.9921 37.789L21.5425 39.4068C21.5425 39.4068 20.823 40.755 20.1931 41.4742C19.5631 42.1931 18.7537 43.0924 18.3037 43.721C17.854 44.3504 17.4939 45.4294 16.8644 46.0584C16.2348 46.6874 15.6948 46.4178 15.8747 47.766C16.0546 49.1142 15.8747 50.5523 16.0546 51.5415C16.2348 52.5303 16.6845 53.8785 17.0442 54.418C17.4039 54.9571 17.6741 54.9571 18.3037 55.4064C18.9336 55.8557 19.7434 56.3956 19.6531 56.8449C19.5631 57.2942 19.743 60.0812 19.743 60.0812C19.743 60.0812 20.283 60.9798 20.3725 61.9686C20.4629 62.9578 21.0924 63.9462 21.0924 63.9462L21.6324 65.1151C21.6324 65.1151 21.9022 65.2053 22.2623 65.9238C22.622 66.643 22.622 66.643 22.712 67.002C22.8023 67.3622 22.8023 67.272 22.8023 67.3622C22.8023 67.4517 22.712 65.8339 22.5321 65.3842C22.3522 64.935 22.3522 64.3958 22.1724 63.8563C21.9925 63.3168 22.2623 62.6874 21.7227 61.8787C21.1831 61.07 21.1831 60.9798 20.9133 60.1707C20.6435 59.362 20.2834 58.4631 20.6435 58.2829C21.0033 58.1036 21.2731 56.9351 21.9929 58.2829C22.7124 59.6312 22.8027 59.2721 22.8926 60.3508C22.9822 61.4294 23.2524 61.7893 23.5222 62.2381C23.792 62.6874 24.4215 64.2161 24.7816 64.8447C25.1414 65.4741 24.7816 64.4853 25.591 65.7436C26.4008 67.002 26.4911 67.2716 26.9408 68.2604C27.3905 69.2492 27.6607 69.2492 27.9305 69.968C28.2003 70.6876 28.0204 70.5075 27.8401 71.3162C27.6603 72.1249 28.02 73.0242 28.02 73.0242C28.02 73.0242 29.2795 73.4735 29.3694 73.7431C29.4593 74.0126 30.7188 74.4619 30.899 74.8217C31.0789 75.1815 32.2484 75.6304 32.2484 75.6304C32.2484 75.6304 33.2381 76.2598 33.5974 76.4395C33.9576 76.6192 35.0375 76.7993 35.0375 76.7993C35.0375 76.7993 35.757 76.9794 36.0268 77.0689C36.2966 77.1587 37.1064 77.1587 37.1064 77.1587C37.1064 77.1587 37.8263 76.6196 38.0961 76.7993C38.3659 76.9786 38.9958 76.4395 39.2656 76.8888C39.5354 77.3384 40.0754 77.3384 40.3452 77.6982C40.615 78.0577 40.8848 78.0577 41.3348 78.5069C41.7849 78.9562 42.2346 78.8664 42.6842 79.2258C43.1339 79.5852 43.4936 79.5852 44.0336 79.5852C44.5732 79.5852 44.5732 79.5852 44.9333 79.6754C45.2927 79.7653 45.4729 79.4055 45.8327 79.8556C46.1924 80.3048 46.4622 80.5744 46.732 81.0237C47.0018 81.4729 47.6317 81.4729 47.7216 82.1922C47.8116 82.911 47.9914 82.8219 47.9914 83.4505C47.9914 84.0799 48.3512 84.3495 48.6214 84.5296C48.8908 84.7089 49.8804 85.6074 49.8804 85.6074L51.2298 85.8774L52.3094 86.6865L53.4486 87.0459L53.4801 87.0447Z" fill="#246234"/>
<path d="M82.3144 3.54021L87.7124 2.8661C87.7124 2.8661 89.6014 2.8661 90.5463 2.192C91.4908 1.51789 90.5463 1.51789 93.3802 0.978764C96.214 0.439239 95.4046 0.169676 96.8891 0.439239C98.3732 0.709201 98.7781 0.709201 100.398 0.978764C102.017 1.24833 102.422 0.844182 103.906 1.24833C105.39 1.65287 106.065 1.51789 107.28 1.51789H111.058C112.948 1.51789 114.702 0.439239 115.376 1.11335C116.051 1.78745 116.456 1.51789 118.75 1.78745C121.044 2.05701 121.989 1.51749 122.934 1.78745C123.879 2.05701 125.498 1.65287 127.387 1.78745C129.276 1.92203 130.221 1.65287 130.896 1.65287C131.57 1.65287 132.245 0.708802 133.19 1.51789C134.134 2.32698 135.349 1.24833 135.483 2.32698C135.619 3.40563 137.373 2.59654 135.619 3.40563C133.864 4.21471 134.134 4.07973 132.919 5.15838C131.705 6.23703 133.729 7.1807 131.165 8.12477C128.601 9.06844 128.196 7.58525 127.521 9.20342C126.847 10.8212 127.521 11.2257 127.387 12.0348C127.252 12.8435 126.982 12.9785 126.172 13.6526C125.363 14.3267 125.363 13.6526 123.473 14.0571C121.584 14.4617 120.234 14.8662 119.425 14.8662C118.615 14.8662 116.861 15.5403 116.321 15.8099C115.781 16.0799 117.266 16.484 114.432 17.2931C111.598 18.1022 110.923 17.9676 110.113 19.0459C109.303 20.1249 109.573 20.2599 109.034 20.934C108.494 21.6081 106.874 24.3049 106.065 23.6308C105.255 22.9567 104.85 23.0913 104.175 22.4172C103.501 21.7431 103.096 20.7994 102.691 20.2599C102.286 19.7204 102.151 18.3721 102.016 17.5631C101.881 16.754 100.666 14.8666 102.016 15.1362C103.365 15.4058 104.175 15.2712 104.58 15.0016C104.985 14.7317 105.39 13.788 105.39 13.788C105.39 13.788 105.255 12.3048 104.85 11.4957C104.445 10.6866 104.715 10.0125 104.041 9.20382C103.366 8.39473 103.366 8.52971 102.421 7.72062C101.476 6.91154 101.746 6.50699 100.262 6.37241C98.7773 6.23783 98.3724 5.83289 97.8324 5.96787C97.2928 6.10245 95.5385 5.0238 97.4275 4.88922C99.3169 4.75424 101.071 5.0238 101.071 5.0238C101.071 5.0238 103.5 3.94515 102.691 3.81057C101.881 3.67559 103.905 2.46196 102.016 2.8665C100.127 3.27104 97.9679 3.81057 97.4279 3.94515C96.8883 4.07973 95.5385 4.21471 94.1891 4.61926C92.8402 5.0238 91.2202 4.88922 90.4108 5.83289C89.601 6.77656 90.4108 6.91154 89.601 6.77656C88.7916 6.64198 90.2757 5.83289 88.3867 6.77656C86.4973 7.72063 87.0373 7.58564 86.0928 7.31608C85.1479 7.04652 84.4732 6.64198 84.4732 6.64198C84.4732 6.64198 85.6883 6.50699 83.9336 6.37241C82.1793 6.23783 82.1793 6.23783 81.5046 5.42834C80.83 4.61926 81.2349 4.61926 81.6393 4.34969C82.0391 4.07973 82.3108 3.54021 82.3108 3.54021H82.3144Z" fill="#246234"/>
<path d="M79.3448 9.60757C78.6701 10.2817 77.0505 11.2257 77.4558 11.6303C77.8607 12.0348 78.1305 13.518 78.9403 13.1135C79.7497 12.7089 78.8052 11.3607 81.9089 12.4394C85.0129 13.518 84.7428 12.3048 85.4174 13.9226C86.0921 15.5403 86.6317 16.7536 86.2268 17.1585C85.8223 17.5631 85.6872 17.9676 84.3375 18.3722C82.9881 18.7767 82.4481 19.3162 83.393 19.9899C84.3375 20.664 86.0921 21.3381 86.9015 21.7431C87.7113 22.1472 90.1403 22.2826 88.9256 20.9344C87.7109 19.5862 89.1954 19.1812 89.1954 19.1812C89.1954 19.1812 91.4897 20.9344 90.6803 18.9117C89.8705 16.8894 89.3305 16.8894 89.8705 16.8894C90.4105 16.8894 91.4897 17.5635 91.4897 17.5635L92.0297 16.4848L91.4897 14.7321L89.7354 12.9793C89.7354 12.9793 91.2195 11.6311 89.1954 11.3615C87.1713 11.092 87.306 11.092 86.2264 10.4175C85.1469 9.74335 85.0121 9.47379 82.9877 9.87833C80.9636 10.2829 80.2889 10.5524 80.2889 10.5524L79.3496 9.60757H79.3448Z" fill="#246234"/>
<path d="M49.251 11.2257C50.0608 10.4166 52.22 8.52931 53.0297 9.06844C53.8391 9.60756 55.0534 8.66389 55.9983 9.47298C56.9428 10.2821 58.0224 11.2257 58.8322 11.4953C59.642 11.7649 60.5865 10.8212 61.3963 11.2257C62.2057 11.6303 65.0396 9.20342 64.5 11.0912C63.96 12.9789 65.1747 13.518 63.6902 13.653C62.2057 13.788 60.5865 14.8666 59.9114 14.4621C59.2367 14.0575 58.6967 13.653 57.6171 14.1925C56.5375 14.7316 57.0775 14.7316 55.8628 14.4621C54.6485 14.1925 54.3787 14.7316 54.1089 14.3271C53.8387 13.923 53.0293 14.0575 53.164 12.8439C53.2987 11.6307 53.7036 11.7653 52.8938 11.7653C52.0845 11.7653 51.4098 11.9002 50.8698 11.4957C50.3342 11.0912 49.255 11.2257 49.255 11.2257H49.251Z" fill="#246234"/>
<path d="M35.7852 17.4762C79.3634 8.58735 181.693 -3.09519 244.293 30.8096" stroke="#DFDFAA" stroke-width="2"/>
<path d="M166.997 42.7143C173.995 43.9842 189.422 51.0953 195.148 69.381" stroke="#DFDFAA" stroke-width="2"/>
<path d="M210.893 73.6667C220.754 74.1429 242.861 69.8572 252.404 48.9048" stroke="#DFDFAA" stroke-width="2"/>
<path d="M262.901 46.5238C269.422 50.6508 281.127 66.2381 275.784 95.5715" stroke="#DFDFAA" stroke-width="2"/>
<rect width="11.4399" height="11.4399" transform="matrix(0.707806 -0.706406 0.707806 0.706406 13.3599 18.9725)" fill="#DFDFAA"/>
<rect width="11.4399" height="11.4399" transform="matrix(0.707806 -0.706406 0.707806 0.706406 146.003 37.0678)" fill="#DFDFAA"/>
<rect width="11.4399" height="11.4399" transform="matrix(0.707806 -0.706406 0.707806 0.706406 82.0671 118.02)" fill="#DFDFAA"/>
<rect width="11.4399" height="11.4399" transform="matrix(0.707806 -0.706406 0.707806 0.706406 246.201 37.0678)" fill="#DFDFAA"/>
<rect width="11.4399" height="11.4399" transform="matrix(0.707806 -0.706406 0.707806 0.706406 269.104 112.306)" fill="#DFDFAA"/>
<rect width="11.4399" height="11.4399" transform="matrix(0.707806 -0.706406 0.707806 0.706406 191.808 79.9249)" fill="#DFDFAA"/>
<path d="M35.3079 17.7566C58.2103 12.6772 111.649 8.2328 142.186 31.0899" stroke="#DFDFAA" stroke-width="2"/>
<path d="M35.3079 17.7566C58.2103 12.6772 93.5182 70.8095 86.3612 106.524" stroke="#DFDFAA" stroke-width="2"/>
<path d="M35.3079 17.7197C102.562 13.7554 83.4984 50.3334 185.128 81.2857" stroke="#DFDFAA" stroke-width="2"/>
<path d="M104.492 117.476C122.305 120.81 164.802 120.048 192.285 90.3334" stroke="#DFDFAA" stroke-width="2"/>
<path d="M104.492 117.476C122.305 120.81 195.625 145.571 269.104 117.476" stroke="#DFDFAA" stroke-width="2"/>
<path d="M210.416 83.1905C215.347 92.2381 233.414 109.286 266.241 105.095" stroke="#DFDFAA" stroke-width="2"/>
</g>
<defs>
<clipPath id="clip0_66_3438">
<rect width="313" height="160" fill="white" transform="translate(0 0.333374)"/>
</clipPath>
</defs>
</svg>
