<svg width="24" height="25" viewBox="0 0 24 25" fill="none" xmlns="http://www.w3.org/2000/svg">
<g id="icon.arrow">
<path id="Vector" d="M11.0001 8.15855L6.10011 13.0585C5.90011 13.2585 5.66678 13.3544 5.40011 13.346C5.13344 13.3377 4.90011 13.2335 4.70011 13.0335C4.51678 12.8335 4.42094 12.6002 4.41261 12.3335C4.40428 12.0669 4.50011 11.8335 4.70011 11.6335L11.3001 5.03354C11.4001 4.93354 11.5084 4.86271 11.6251 4.82104C11.7418 4.77938 11.8668 4.75854 12.0001 4.75854C12.1334 4.75854 12.2584 4.77938 12.3751 4.82104C12.4918 4.86271 12.6001 4.93354 12.7001 5.03354L19.3001 11.6335C19.4834 11.8169 19.5751 12.046 19.5751 12.321C19.5751 12.596 19.4834 12.8335 19.3001 13.0335C19.1001 13.2335 18.8626 13.3335 18.5876 13.3335C18.3126 13.3335 18.0751 13.2335 17.8751 13.0335L13.0001 8.15855V19.3335C13.0001 19.6169 12.9043 19.8544 12.7126 20.046C12.5209 20.2377 12.2834 20.3335 12.0001 20.3335C11.7168 20.3335 11.4793 20.2377 11.2876 20.046C11.0959 19.8544 11.0001 19.6169 11.0001 19.3335V8.15855Z" fill="#E8EAED"/>
</g>
</svg>
