<svg width="28" height="28" viewBox="0 0 28 28" fill="none" xmlns="http://www.w3.org/2000/svg">
<g id="icon.chevron">
<path id="Vector" d="M13.9998 17.4708C13.8442 17.4708 13.6984 17.4465 13.5623 17.3979C13.4262 17.3492 13.2998 17.2666 13.1831 17.1499L7.81644 11.7833C7.60255 11.5694 7.49561 11.2972 7.49561 10.9666C7.49561 10.636 7.60255 10.3638 7.81644 10.1499C8.03033 9.93605 8.30255 9.8291 8.63311 9.8291C8.96366 9.8291 9.23588 9.93605 9.44977 10.1499L13.9998 14.6999L18.5498 10.1499C18.7637 9.93605 19.0359 9.8291 19.3664 9.8291C19.697 9.8291 19.9692 9.93605 20.1831 10.1499C20.397 10.3638 20.5039 10.636 20.5039 10.9666C20.5039 11.2972 20.397 11.5694 20.1831 11.7833L14.8164 17.1499C14.6998 17.2666 14.5734 17.3492 14.4373 17.3979C14.3012 17.4465 14.1553 17.4708 13.9998 17.4708Z" fill="#0D140F"/>
</g>
</svg>
