<svg width="25" height="25" viewBox="0 0 25 25" fill="none" xmlns="http://www.w3.org/2000/svg">
<g id="icon.arrow">
<path id="Vector" d="M16.65 13.3334H5.5C5.21667 13.3334 4.97917 13.2376 4.7875 13.0459C4.59583 12.8542 4.5 12.6167 4.5 12.3334C4.5 12.0501 4.59583 11.8126 4.7875 11.6209C4.97917 11.4292 5.21667 11.3334 5.5 11.3334H16.65L13.8 8.48339C13.6 8.28339 13.5042 8.05005 13.5125 7.78339C13.5208 7.51672 13.6167 7.28339 13.8 7.08339C14 6.88339 14.2375 6.77922 14.5125 6.77089C14.7875 6.76255 15.025 6.85839 15.225 7.05839L19.8 11.6334C19.9 11.7334 19.9708 11.8417 20.0125 11.9584C20.0542 12.0751 20.075 12.2001 20.075 12.3334C20.075 12.4667 20.0542 12.5917 20.0125 12.7084C19.9708 12.8251 19.9 12.9334 19.8 13.0334L15.225 17.6084C15.025 17.8084 14.7875 17.9042 14.5125 17.8959C14.2375 17.8876 14 17.7834 13.8 17.5834C13.6167 17.3834 13.5208 17.1501 13.5125 16.8834C13.5042 16.6167 13.6 16.3834 13.8 16.1834L16.65 13.3334Z" fill="#246234"/>
</g>
</svg>
