<svg width="32" height="32" viewBox="0 0 32 32" fill="none" xmlns="http://www.w3.org/2000/svg">
<g id="icon.arrow">
<path id="Vector" d="M16 14.4L10.8 19.6C10.5555 19.8444 10.2444 19.9666 9.86665 19.9666C9.48887 19.9666 9.17776 19.8444 8.93332 19.6C8.68887 19.3555 8.56665 19.0444 8.56665 18.6666C8.56665 18.2888 8.68887 17.9777 8.93332 17.7333L15.0667 11.6C15.3333 11.3333 15.6444 11.2 16 11.2C16.3555 11.2 16.6667 11.3333 16.9333 11.6L23.0667 17.7333C23.3111 17.9777 23.4333 18.2888 23.4333 18.6666C23.4333 19.0444 23.3111 19.3555 23.0667 19.6C22.8222 19.8444 22.5111 19.9666 22.1333 19.9666C21.7555 19.9666 21.4444 19.8444 21.2 19.6L16 14.4Z" fill="#0D140F"/>
</g>
</svg>
