<svg width="32" height="33" viewBox="0 0 32 33" fill="none" xmlns="http://www.w3.org/2000/svg">
<g id="icon.lightbulb">
<path id="Vector" d="M16 29.6667C15.2667 29.6667 14.6389 29.4056 14.1167 28.8833C13.5944 28.3611 13.3333 27.7333 13.3333 27H18.6667C18.6667 27.7333 18.4056 28.3611 17.8833 28.8833C17.3611 29.4056 16.7333 29.6667 16 29.6667ZM12 25.6667C11.6222 25.6667 11.3056 25.5389 11.05 25.2833C10.7944 25.0278 10.6667 24.7111 10.6667 24.3333C10.6667 23.9556 10.7944 23.6389 11.05 23.3833C11.3056 23.1278 11.6222 23 12 23H20C20.3778 23 20.6944 23.1278 20.95 23.3833C21.2056 23.6389 21.3333 23.9556 21.3333 24.3333C21.3333 24.7111 21.2056 25.0278 20.95 25.2833C20.6944 25.5389 20.3778 25.6667 20 25.6667H12ZM11 21.6667C9.46667 20.7556 8.25 19.5333 7.35 18C6.45 16.4667 6 14.8 6 13C6 10.2222 6.97222 7.86111 8.91667 5.91667C10.8611 3.97222 13.2222 3 16 3C18.7778 3 21.1389 3.97222 23.0833 5.91667C25.0278 7.86111 26 10.2222 26 13C26 14.8 25.55 16.4667 24.65 18C23.75 19.5333 22.5333 20.7556 21 21.6667H11ZM11.8 19H20.2C21.2 18.2889 21.9722 17.4111 22.5167 16.3667C23.0611 15.3222 23.3333 14.2 23.3333 13C23.3333 10.9556 22.6222 9.22222 21.2 7.8C19.7778 6.37778 18.0444 5.66667 16 5.66667C13.9556 5.66667 12.2222 6.37778 10.8 7.8C9.37778 9.22222 8.66667 10.9556 8.66667 13C8.66667 14.2 8.93889 15.3222 9.48333 16.3667C10.0278 17.4111 10.8 18.2889 11.8 19Z" fill="#246234"/>
</g>
</svg>
