<svg width="32" height="33" viewBox="0 0 32 33" fill="none" xmlns="http://www.w3.org/2000/svg">
<g id="icon.target">
<path id="Vector" d="M16.0001 29.6667C14.1556 29.6667 12.4223 29.3167 10.8001 28.6167C9.17786 27.9167 7.76675 26.9667 6.56675 25.7667C5.36675 24.5667 4.41675 23.1556 3.71675 21.5333C3.01675 19.9111 2.66675 18.1778 2.66675 16.3333C2.66675 14.4889 3.01675 12.7556 3.71675 11.1333C4.41675 9.51111 5.36675 8.1 6.56675 6.9C7.76675 5.7 9.17786 4.75 10.8001 4.05C12.4223 3.35 14.1556 3 16.0001 3C17.8445 3 19.5779 3.35 21.2001 4.05C22.8223 4.75 24.2334 5.7 25.4334 6.9C26.6334 8.1 27.5834 9.51111 28.2834 11.1333C28.9834 12.7556 29.3334 14.4889 29.3334 16.3333C29.3334 18.1778 28.9834 19.9111 28.2834 21.5333C27.5834 23.1556 26.6334 24.5667 25.4334 25.7667C24.2334 26.9667 22.8223 27.9167 21.2001 28.6167C19.5779 29.3167 17.8445 29.6667 16.0001 29.6667ZM16.0001 27C18.9779 27 21.5001 25.9667 23.5667 23.9C25.6334 21.8333 26.6667 19.3111 26.6667 16.3333C26.6667 13.3556 25.6334 10.8333 23.5667 8.76667C21.5001 6.7 18.9779 5.66667 16.0001 5.66667C13.0223 5.66667 10.5001 6.7 8.43341 8.76667C6.36675 10.8333 5.33341 13.3556 5.33341 16.3333C5.33341 19.3111 6.36675 21.8333 8.43341 23.9C10.5001 25.9667 13.0223 27 16.0001 27ZM16.0001 24.3333C13.7779 24.3333 11.889 23.5556 10.3334 22C8.77786 20.4444 8.00008 18.5556 8.00008 16.3333C8.00008 14.1111 8.77786 12.2222 10.3334 10.6667C11.889 9.11111 13.7779 8.33333 16.0001 8.33333C18.2223 8.33333 20.1112 9.11111 21.6667 10.6667C23.2223 12.2222 24.0001 14.1111 24.0001 16.3333C24.0001 18.5556 23.2223 20.4444 21.6667 22C20.1112 23.5556 18.2223 24.3333 16.0001 24.3333ZM16.0001 21.6667C17.4667 21.6667 18.7223 21.1444 19.7667 20.1C20.8112 19.0556 21.3334 17.8 21.3334 16.3333C21.3334 14.8667 20.8112 13.6111 19.7667 12.5667C18.7223 11.5222 17.4667 11 16.0001 11C14.5334 11 13.2779 11.5222 12.2334 12.5667C11.189 13.6111 10.6667 14.8667 10.6667 16.3333C10.6667 17.8 11.189 19.0556 12.2334 20.1C13.2779 21.1444 14.5334 21.6667 16.0001 21.6667ZM16.0001 19C15.2667 19 14.639 18.7389 14.1167 18.2167C13.5945 17.6944 13.3334 17.0667 13.3334 16.3333C13.3334 15.6 13.5945 14.9722 14.1167 14.45C14.639 13.9278 15.2667 13.6667 16.0001 13.6667C16.7334 13.6667 17.3612 13.9278 17.8834 14.45C18.4056 14.9722 18.6667 15.6 18.6667 16.3333C18.6667 17.0667 18.4056 17.6944 17.8834 18.2167C17.3612 18.7389 16.7334 19 16.0001 19Z" fill="#246234"/>
</g>
</svg>
