<svg width="26" height="26" viewBox="0 0 26 26" fill="none" xmlns="http://www.w3.org/2000/svg">
<g id="Instagram_Glyph_White 1" clip-path="url(#clip0_96_1496)">
<path id="Vector" d="M7.8229 0.921162C6.4929 0.983912 5.58465 1.19616 4.79065 1.50816C3.9689 1.82841 3.2724 2.25816 2.5794 2.95366C1.8864 3.64916 1.45965 4.34616 1.14165 5.16916C0.833898 5.96491 0.625398 6.87391 0.566648 8.20466C0.507898 9.53541 0.494898 9.96316 0.501398 13.3577C0.507898 16.7522 0.522898 17.1777 0.587398 18.5112C0.650898 19.8409 0.862398 20.7489 1.1744 21.5432C1.49515 22.3649 1.9244 23.0612 2.62015 23.7544C3.3159 24.4477 4.0124 24.8734 4.8374 25.1919C5.6324 25.4992 6.54165 25.7087 7.87215 25.7669C9.20265 25.8252 9.6309 25.8387 13.0244 25.8322C16.4179 25.8257 16.8451 25.8107 18.1784 25.7474C19.5116 25.6842 20.4149 25.4712 21.2094 25.1607C22.0311 24.8392 22.7279 24.4107 23.4206 23.7147C24.1134 23.0187 24.5399 22.3212 24.8576 21.4977C25.1656 20.7027 25.3749 19.7934 25.4326 18.4639C25.4909 17.1297 25.5046 16.7037 25.4981 13.3097C25.4916 9.91566 25.4764 9.49016 25.4131 8.15716C25.3499 6.82416 25.1381 5.91891 24.8264 5.12416C24.5051 4.30241 24.0764 3.60666 23.3809 2.91291C22.6854 2.21916 21.9874 1.79291 21.1641 1.47591C20.3686 1.16816 19.4599 0.958412 18.1294 0.900912C16.7989 0.843412 16.3706 0.828662 12.9759 0.835162C9.58115 0.841662 9.15615 0.856162 7.8229 0.921162ZM7.9689 23.5182C6.75015 23.4652 6.0884 23.2627 5.6474 23.0932C5.0634 22.8682 4.6474 22.5962 4.2079 22.1609C3.7684 21.7257 3.4984 21.3082 3.2704 20.7254C3.09915 20.2844 2.8929 19.6234 2.8359 18.4047C2.7739 17.0874 2.7609 16.6919 2.75365 13.3547C2.7464 10.0174 2.75915 9.62241 2.8169 8.30466C2.8689 7.08691 3.07265 6.42441 3.2419 5.98366C3.4669 5.39891 3.7379 4.98366 4.17415 4.54441C4.6104 4.10516 5.02665 3.83466 5.6099 3.60666C6.0504 3.43466 6.7114 3.23016 7.92965 3.17216C9.2479 3.10966 9.6429 3.09716 12.9796 3.08991C16.3164 3.08266 16.7124 3.09516 18.0311 3.15316C19.2489 3.20616 19.9116 3.40791 20.3519 3.57816C20.9361 3.80316 21.3519 4.07341 21.7911 4.51041C22.2304 4.94741 22.5011 5.36216 22.7291 5.94666C22.9014 6.38591 23.1059 7.04666 23.1634 8.26566C23.2261 9.58391 23.2404 9.97916 23.2464 13.3157C23.2524 16.6522 23.2406 17.0484 23.1829 18.3657C23.1296 19.5844 22.9276 20.2464 22.7579 20.6879C22.5329 21.2717 22.2616 21.6879 21.8251 22.1269C21.3886 22.5659 20.9729 22.8364 20.3894 23.0644C19.9494 23.2362 19.2876 23.4412 18.0704 23.4992C16.7521 23.5612 16.3571 23.5742 13.0191 23.5814C9.68115 23.5887 9.2874 23.5752 7.96915 23.5182M18.1591 6.65291C18.1596 6.9496 18.2481 7.23949 18.4134 7.4859C18.5786 7.73231 18.8132 7.92417 19.0875 8.03723C19.3619 8.15029 19.6635 8.17946 19.9544 8.12106C20.2453 8.06266 20.5123 7.9193 20.7217 7.70912C20.9312 7.49894 21.0735 7.23139 21.1309 6.94029C21.1882 6.64919 21.1579 6.34762 21.0439 6.07373C20.9298 5.79984 20.7371 5.56593 20.4901 5.40158C20.243 5.23723 19.9528 5.14982 19.6561 5.15041C19.2584 5.15121 18.8773 5.30994 18.5965 5.5917C18.3158 5.87345 18.1585 6.25517 18.1591 6.65291ZM6.58165 13.3462C6.58865 16.8912 9.46765 19.7584 13.0119 19.7517C16.5561 19.7449 19.4254 16.8662 19.4186 13.3212C19.4119 9.77616 16.5321 6.90816 12.9874 6.91516C9.44265 6.92216 6.5749 9.80166 6.58165 13.3462ZM8.83315 13.3417C8.83152 12.5176 9.0743 11.7115 9.53079 11.0254C9.98728 10.3392 10.637 9.80389 11.3977 9.48701C12.1585 9.17013 12.9961 9.08596 13.8047 9.24513C14.6133 9.40431 15.3565 9.79968 15.9404 10.3813C16.5243 10.9628 16.9226 11.7045 17.085 12.5124C17.2473 13.3204 17.1665 14.1583 16.8526 14.9203C16.5388 15.6823 16.006 16.3341 15.3217 16.7934C14.6374 17.2526 13.8323 17.4985 13.0081 17.5002C12.4609 17.5013 11.9189 17.3947 11.4129 17.1863C10.9069 16.9779 10.4469 16.6719 10.0592 16.2857C9.67155 15.8996 9.36372 15.4408 9.15335 14.9357C8.94297 14.4305 8.83416 13.8889 8.83315 13.3417Z" fill="white"/>
</g>
<defs>
<clipPath id="clip0_96_1496">
<rect width="25" height="25" fill="white" transform="translate(0.5 0.833496)"/>
</clipPath>
</defs>
</svg>
