<svg width="32" height="32" viewBox="0 0 32 32" fill="none" xmlns="http://www.w3.org/2000/svg">
<g clip-path="url(#clip0_78_15174)">
<path d="M27.9352 17.1295V16.2687V14.5489H25.4591H23.8081V13.6881H27.9352V11.9674H23.8081H21.332V13.6881V14.5489V16.2687H23.8081H25.4591V17.1295H21.332V18.8503H25.4591H27.9352V17.1295Z" fill="#010101"/>
<path d="M20.5065 11.9674H18.8555V18.8494H20.5065V11.9674Z" fill="#010101"/>
<path d="M11.4277 11.9674V13.6881H16.3799V14.5489H13.0779H11.4277V16.2687V18.8503H13.0779V16.2949L15.5548 18.8503H18.0309L15.4473 16.2687H16.3799H18.0309V14.5489V13.6881V11.9674H16.3799H11.4277Z" fill="#010101"/>
<path d="M6.47461 16.2687H8.12128V14.5525H6.47461V16.2687ZM6.88801 14.9788H7.71308V15.8387H6.88801V14.9788Z" fill="#010101"/>
<path d="M5.64905 11.9674H4.20431C4.14972 11.9678 4.09745 11.9905 4.05871 12.0306C4.03944 12.0507 4.02416 12.0744 4.01375 12.1006C4.00334 12.1268 3.998 12.1549 3.99805 12.1833V18.6344C3.998 18.6627 4.00334 18.6908 4.01375 18.717C4.02416 18.7432 4.03944 18.767 4.05871 18.787C4.09754 18.8269 4.14982 18.8493 4.20431 18.8494H8.12511V17.1332H5.64905V11.9674Z" fill="#010101"/>
<path d="M10.3954 11.9674H6.47461V13.6881H8.95154V16.2687H10.5982V12.1833C10.5987 12.1265 10.5779 12.0717 10.5401 12.0306C10.5015 11.991 10.4496 11.9684 10.3954 11.9674Z" fill="#010101"/>
<path d="M10.6022 17.1295H8.95117V21.0009H10.6022V17.1295Z" fill="#010101"/>
<path d="M6.302 11H3.20627C3.15163 11.0002 3.0993 11.023 3.06067 11.0632C3.02203 11.1035 3.00023 11.158 3 11.215V14.4414H3.41253V11.6413C3.41366 11.585 3.43587 11.5314 3.4744 11.4919C3.51294 11.4524 3.56476 11.4302 3.6188 11.43H6.30547L6.302 11Z" fill="#010101"/>
<path d="M28.5873 16.5912V19.3913C28.587 19.4482 28.5652 19.5028 28.5266 19.543C28.488 19.5833 28.4356 19.606 28.381 19.6063H25.6943V20.0326H28.7901C28.8174 20.033 28.8446 20.0277 28.8699 20.017C28.8953 20.0064 28.9184 19.9907 28.9379 19.9707C28.9574 19.9507 28.9729 19.9269 28.9835 19.9006C28.9942 19.8743 28.9997 19.8461 28.9998 19.8176V16.5912H28.5873Z" fill="#010101"/>
</g>
<defs>
<clipPath id="clip0_78_15174">
<rect width="26" height="10" fill="white" transform="translate(3 11)"/>
</clipPath>
</defs>
</svg>
